<?xml version="1.0" encoding="UTF-8" standalone="no"?>
<!DOCTYPE svg PUBLIC "-//W3C//DTD SVG 1.1//EN" "http://www.w3.org/Graphics/SVG/1.1/DTD/svg11.dtd">
<svg width="100%" height="100%" viewBox="0 0 144 118" version="1.1" xmlns="http://www.w3.org/2000/svg" xmlns:xlink="http://www.w3.org/1999/xlink" xml:space="preserve" xmlns:serif="http://www.serif.com/" style="fill-rule:evenodd;clip-rule:evenodd;stroke-linejoin:round;stroke-miterlimit:2;">
    <g transform="matrix(1,0,0,1,68.398,105.643)">
        <g id="Layer-1" serif:id="Layer 1">
            <path d="M0,-93.979C-0.745,-93.924 -1.489,-93.87 -2.233,-93.815L-2.233,-98.658C-1.474,-98.713 -0.715,-98.769 0.044,-98.825C1.194,-98.91 1.931,-98.762 2.365,-98.359C2.73,-98.02 2.907,-97.457 2.907,-96.639C2.908,-94.857 2.119,-94.136 0,-93.979M0,-99.429C-0.853,-99.366 -1.705,-99.303 -2.558,-99.241L-2.839,-99.22L-2.839,-93.164L-2.514,-93.187C-1.661,-93.25 -0.809,-93.312 0.044,-93.375C2.476,-93.555 3.514,-94.531 3.513,-96.639C3.513,-97.634 3.272,-98.342 2.777,-98.803C2.211,-99.328 1.329,-99.527 0,-99.429M-49.25,-88.557C-50.297,-88.606 -51.337,-88.662 -52.353,-88.725L-52.353,-90.452L-52.857,-90.001C-54.082,-88.905 -55.913,-88.461 -58.299,-88.681C-64.688,-89.289 -67.793,-91.907 -67.793,-96.687C-67.793,-98.603 -67.294,-99.988 -66.268,-100.921C-64.828,-102.229 -62.277,-102.688 -58.465,-102.323C-56.307,-102.132 -49.844,-101.562 -49.333,-97.05C-51.314,-97.144 -53.284,-97.265 -55.195,-97.41C-55.408,-97.837 -56.032,-98.634 -58.373,-98.845C-59.8,-98.979 -60.814,-98.75 -61.48,-98.144C-62.036,-97.638 -62.318,-96.874 -62.319,-95.874C-62.319,-93.422 -61.011,-92.107 -58.317,-91.855C-56.088,-91.654 -55.13,-92.352 -54.89,-92.571C-54.72,-92.726 -54.633,-92.879 -54.633,-93.026L-54.632,-93.308L-54.913,-93.329C-55.785,-93.394 -56.655,-93.465 -57.506,-93.54L-57.506,-95.935C-54.827,-95.7 -52.054,-95.515 -49.25,-95.383L-49.25,-88.557ZM-57.781,-96.567L-58.111,-96.596L-58.111,-92.986L-57.835,-92.961C-57.125,-92.897 -56.398,-92.836 -55.667,-92.779C-56.12,-92.56 -56.943,-92.339 -58.262,-92.458C-60.649,-92.682 -61.714,-93.735 -61.714,-95.874C-61.713,-96.708 -61.504,-97.304 -61.073,-97.696C-60.548,-98.174 -59.658,-98.358 -58.429,-98.242C-56.881,-98.103 -55.956,-97.689 -55.679,-97.008L-55.608,-96.834L-55.422,-96.82C-53.339,-96.66 -51.185,-96.528 -49.018,-96.429L-48.686,-96.414L-48.701,-96.746C-48.869,-100.342 -52.045,-102.364 -58.409,-102.926C-62.398,-103.308 -65.102,-102.799 -66.675,-101.369C-67.834,-100.315 -68.398,-98.783 -68.398,-96.687C-68.398,-91.608 -65.021,-88.712 -58.355,-88.078C-56.095,-87.87 -54.284,-88.23 -52.958,-89.151L-52.958,-88.156L-52.674,-88.139C-51.465,-88.062 -50.215,-87.994 -48.962,-87.937L-48.645,-87.922L-48.645,-95.962L-48.934,-95.975C-51.942,-96.112 -54.919,-96.311 -57.781,-96.567M-18.709,-88.353C-22.35,-88.163 -24.954,-88.786 -26.448,-90.204C-27.562,-91.261 -28.104,-92.751 -28.104,-94.76C-28.104,-99.416 -25.196,-101.645 -18.678,-101.984L-18.677,-101.984C-18.189,-102.01 -17.722,-102.023 -17.275,-102.023C-14.271,-102.023 -12.172,-101.423 -10.882,-100.202C-9.807,-99.184 -9.283,-97.73 -9.283,-95.76C-9.283,-91.056 -12.278,-88.703 -18.709,-88.353M-38.518,-87.799L-38.52,-87.799C-44.851,-87.827 -47.929,-90.126 -47.931,-94.826C-47.931,-96.775 -47.418,-98.234 -46.362,-99.285C-44.913,-100.728 -42.393,-101.43 -38.657,-101.43C-38.612,-101.43 -38.567,-101.429 -38.521,-101.429C-35.243,-101.429 -32.904,-100.9 -31.372,-99.812C-29.85,-98.732 -29.11,-97.076 -29.11,-94.748C-29.111,-90.072 -32.188,-87.799 -38.518,-87.799M-18.709,-102.588C-24.832,-102.27 -28.02,-100.233 -28.608,-96.214C-28.877,-98.003 -29.674,-99.35 -31.021,-100.306C-32.66,-101.469 -35.112,-102.034 -38.52,-102.035L-38.656,-102.035C-42.56,-102.035 -45.222,-101.275 -46.789,-99.714C-47.965,-98.543 -48.536,-96.944 -48.536,-94.826C-48.534,-89.791 -45.165,-87.223 -38.521,-87.193L-38.519,-87.193C-32.539,-87.193 -29.212,-89.252 -28.606,-93.318C-28.383,-91.845 -27.801,-90.653 -26.864,-89.765C-25.224,-88.207 -22.545,-87.547 -18.677,-87.748C-11.948,-88.114 -8.678,-90.735 -8.678,-95.76C-8.678,-97.906 -9.263,-99.503 -10.465,-100.641C-12.075,-102.166 -14.772,-102.802 -18.709,-102.588M1.52,-90.199C-1.93,-89.943 -4.85,-89.729 -7.794,-89.527L-7.794,-102.155C-4.614,-102.374 -1.42,-102.608 1.564,-102.83C4.488,-103.049 6.386,-102.654 7.531,-101.591C8.512,-100.682 8.987,-99.209 8.987,-97.089C8.987,-92.532 6.894,-90.6 1.52,-90.199M1.52,-103.434C-1.553,-103.206 -4.847,-102.963 -8.117,-102.739L-8.399,-102.72L-8.399,-88.878L-8.076,-88.901C-5.02,-89.11 -2.012,-89.33 1.564,-89.595C7.267,-90.021 9.593,-92.191 9.593,-97.089C9.593,-99.387 9.054,-101.004 7.943,-102.035C6.666,-103.221 4.624,-103.665 1.52,-103.434M-35.862,-92.688C-36.401,-92.15 -37.291,-91.877 -38.507,-91.877L-38.52,-91.877C-40.762,-91.885 -41.852,-92.791 -41.851,-94.648C-41.851,-95.491 -41.637,-96.114 -41.194,-96.554C-40.659,-97.087 -39.769,-97.35 -38.521,-97.351C-36.248,-97.348 -35.19,-96.482 -35.19,-94.628C-35.19,-93.786 -35.416,-93.133 -35.862,-92.688M-38.52,-97.957L-38.551,-97.957C-39.94,-97.957 -40.974,-97.629 -41.622,-96.983C-42.176,-96.432 -42.456,-95.646 -42.456,-94.648C-42.457,-93.114 -41.774,-91.283 -38.521,-91.271L-38.507,-91.271C-37.125,-91.271 -36.091,-91.604 -35.435,-92.26C-34.87,-92.823 -34.585,-93.62 -34.585,-94.628C-34.585,-96.833 -35.908,-97.953 -38.52,-97.957M74.996,-90.401C70.363,-91.081 65.487,-91.592 60.495,-91.922L60.495,-104.55C65.451,-104.222 70.289,-103.714 74.885,-103.04L74.885,-100.279C71.929,-100.71 68.868,-101.075 65.781,-101.363L65.45,-101.394L65.45,-99.118L65.725,-99.092C68.665,-98.817 71.583,-98.473 74.403,-98.068L74.403,-95.622C71.602,-96.022 68.702,-96.364 65.781,-96.637L65.45,-96.667L65.45,-94.243L65.725,-94.217C68.874,-93.923 71.992,-93.549 74.996,-93.107L74.996,-90.401ZM75.344,-93.668C72.336,-94.116 69.213,-94.495 66.056,-94.794L66.056,-96.002C68.976,-95.725 71.869,-95.378 74.662,-94.973L75.009,-94.922L75.009,-98.593L74.749,-98.63C71.927,-99.04 69.004,-99.389 66.056,-99.669L66.056,-100.729C69.141,-100.436 72.196,-100.065 75.144,-99.628L75.49,-99.577L75.49,-103.563L75.232,-103.601C70.443,-104.311 65.39,-104.841 60.212,-105.176L59.89,-105.197L59.89,-91.355L60.173,-91.337C65.373,-91 70.447,-90.467 75.254,-89.751L75.602,-89.699L75.602,-93.629L75.344,-93.668ZM36.495,-92.287C34.902,-92.243 33.238,-92.187 31.54,-92.118L31.54,-104.747C33.229,-104.815 34.893,-104.872 36.495,-104.916L36.495,-92.287ZM31.225,-105.34L30.935,-105.328L30.935,-91.487L31.25,-91.5C33.16,-91.579 35.029,-91.643 36.807,-91.689L37.101,-91.697L37.101,-105.538L36.79,-105.53C34.998,-105.482 33.125,-105.418 31.225,-105.34M58.521,-92.043C56.904,-92.135 55.24,-92.21 53.566,-92.267L53.566,-100.609L52.942,-100.628L52.867,-100.423C51.892,-97.742 50.915,-95.055 49.938,-92.362C48.735,-92.385 47.502,-92.399 46.266,-92.405C45.276,-95.142 44.287,-97.873 43.298,-100.598L43.225,-100.799L42.6,-100.794L42.6,-92.398C41.098,-92.385 39.546,-92.36 37.978,-92.325L37.978,-104.954C40.662,-105.016 43.295,-105.043 45.81,-105.036C46.455,-102.911 47.101,-100.784 47.746,-98.655L47.813,-98.442L48.37,-98.435L48.438,-98.653C49.082,-100.765 49.728,-102.875 50.372,-104.983C53.15,-104.925 55.89,-104.821 58.521,-104.672L58.521,-92.043ZM50.155,-105.593L49.927,-105.597L49.86,-105.379C49.271,-103.454 48.682,-101.528 48.093,-99.599C47.503,-101.543 46.914,-103.485 46.324,-105.426L46.259,-105.64L46.035,-105.641C43.355,-105.65 40.54,-105.621 37.667,-105.552L37.372,-105.545L37.372,-91.705L37.682,-91.711C39.458,-91.754 41.215,-91.782 42.904,-91.794L43.205,-91.797L43.205,-99.08C44.06,-96.724 44.914,-94.364 45.769,-92L45.841,-91.801L46.052,-91.8C47.431,-91.795 48.807,-91.779 50.144,-91.752L50.36,-91.749L50.435,-91.952C51.276,-94.275 52.118,-96.594 52.961,-98.908L52.961,-91.681L53.254,-91.671C55.133,-91.61 57.001,-91.525 58.807,-91.421L59.127,-91.402L59.127,-105.243L58.842,-105.26C56.043,-105.422 53.121,-105.534 50.155,-105.593M30.059,-101.323C28.495,-101.254 26.854,-101.173 25.173,-101.083L24.887,-101.067L24.887,-91.799C23.304,-91.712 21.64,-91.614 19.932,-91.507L19.932,-100.774L19.609,-100.754C18.077,-100.657 16.488,-100.552 14.76,-100.433L14.76,-103.792C20.678,-104.201 25.557,-104.485 30.059,-104.684L30.059,-101.323ZM14.436,-104.377L14.154,-104.357L14.154,-99.784L14.478,-99.806C16.209,-99.926 17.799,-100.032 19.326,-100.129L19.326,-90.862L19.647,-90.882C21.571,-91.004 23.441,-91.114 25.206,-91.209L25.492,-91.225L25.492,-100.493C27.174,-100.583 28.815,-100.663 30.374,-100.73L30.664,-100.743L30.664,-105.316L30.348,-105.303C25.683,-105.101 20.627,-104.806 14.436,-104.377M-18.709,-92.431C-19.935,-92.366 -20.825,-92.592 -21.361,-93.102C-21.801,-93.519 -22.023,-94.154 -22.023,-94.989C-22.022,-96.859 -20.959,-97.786 -18.677,-97.906C-18.536,-97.914 -18.4,-97.917 -18.269,-97.917C-17.245,-97.917 -16.489,-97.691 -16.017,-97.243C-15.577,-96.826 -15.363,-96.214 -15.363,-95.373C-15.362,-93.513 -16.457,-92.551 -18.709,-92.431M-18.709,-98.511C-21.31,-98.374 -22.628,-97.189 -22.629,-94.99C-22.629,-93.981 -22.344,-93.198 -21.778,-92.662C-21.186,-92.099 -20.285,-91.814 -19.099,-91.815C-18.962,-91.815 -18.821,-91.818 -18.678,-91.826L-18.677,-91.826C-16.889,-91.921 -14.757,-92.614 -14.758,-95.373C-14.758,-96.375 -15.041,-97.152 -15.6,-97.683C-16.259,-98.307 -17.305,-98.585 -18.709,-98.511M36.495,-75.759C34.902,-75.715 33.238,-75.659 31.54,-75.59L31.54,-88.219C33.229,-88.287 34.893,-88.344 36.495,-88.388L36.495,-75.759ZM31.225,-88.812L30.935,-88.8L30.935,-74.959L31.25,-74.972C33.16,-75.051 35.029,-75.115 36.807,-75.162L37.101,-75.169L37.101,-89.01L36.79,-89.002C34.998,-88.954 33.125,-88.89 31.225,-88.812M58.521,-75.516C56.904,-75.607 55.24,-75.682 53.566,-75.739L53.566,-84.079L52.942,-84.101L52.867,-83.895C51.892,-81.214 50.915,-78.527 49.938,-75.834C48.735,-75.857 47.502,-75.872 46.266,-75.877C45.276,-78.613 44.287,-81.345 43.298,-84.07L43.225,-84.271L42.6,-84.266L42.6,-75.87C41.098,-75.857 39.546,-75.833 37.978,-75.797L37.978,-88.426C40.662,-88.488 43.295,-88.516 45.81,-88.508C46.455,-86.383 47.101,-84.256 47.746,-82.127L47.813,-81.915L48.37,-81.907L48.438,-82.125C49.082,-84.237 49.728,-86.348 50.372,-88.455C53.15,-88.397 55.89,-88.293 58.521,-88.144L58.521,-75.516ZM50.155,-89.065L49.927,-89.07L49.86,-88.851C49.271,-86.926 48.682,-85 48.093,-83.071C47.503,-85.016 46.914,-86.958 46.324,-88.898L46.259,-89.112L46.035,-89.113C43.355,-89.122 40.54,-89.093 37.667,-89.024L37.372,-89.017L37.372,-75.177L37.682,-75.184C39.458,-75.227 41.215,-75.254 42.904,-75.267L43.205,-75.269L43.205,-82.552C44.06,-80.196 44.914,-77.836 45.769,-75.473L45.841,-75.273L46.052,-75.272C47.431,-75.267 48.807,-75.251 50.144,-75.225L50.36,-75.221L50.435,-75.424C51.276,-77.748 52.118,-80.066 52.961,-82.38L52.961,-75.153L53.254,-75.144C55.133,-75.082 57.001,-74.998 58.807,-74.893L59.127,-74.874L59.127,-88.715L58.842,-88.732C56.043,-88.895 53.121,-89.006 50.155,-89.065M-18.709,-75.903C-19.935,-75.838 -20.825,-76.064 -21.361,-76.574C-21.801,-76.991 -22.023,-77.626 -22.023,-78.461C-22.022,-80.332 -20.959,-81.258 -18.677,-81.378C-18.536,-81.385 -18.4,-81.389 -18.269,-81.389C-17.245,-81.389 -16.488,-81.163 -16.017,-80.715C-15.577,-80.298 -15.363,-79.687 -15.363,-78.845C-15.362,-76.985 -16.457,-76.023 -18.709,-75.903M-18.709,-81.982C-21.31,-81.846 -22.628,-80.662 -22.629,-78.462C-22.629,-77.454 -22.344,-76.67 -21.778,-76.135C-21.186,-75.571 -20.285,-75.287 -19.099,-75.287C-18.962,-75.287 -18.821,-75.291 -18.678,-75.298L-18.677,-75.298C-16.889,-75.394 -14.757,-76.086 -14.758,-78.845C-14.758,-79.848 -15.041,-80.625 -15.6,-81.155C-16.259,-81.779 -17.306,-82.057 -18.709,-81.982M74.996,-73.874C70.363,-74.553 65.487,-75.064 60.495,-75.395L60.495,-88.023C65.451,-87.694 70.289,-87.186 74.885,-86.513L74.885,-83.751C71.929,-84.183 68.868,-84.547 65.781,-84.835L65.45,-84.866L65.45,-82.59L65.725,-82.564C68.666,-82.29 71.584,-81.945 74.403,-81.541L74.403,-79.094C71.602,-79.495 68.702,-79.836 65.781,-80.109L65.45,-80.14L65.45,-77.715L65.725,-77.689C68.872,-77.395 71.989,-77.022 74.996,-76.579L74.996,-73.874ZM66.056,-78.266L66.056,-79.475C68.976,-79.197 71.869,-78.85 74.662,-78.445L75.009,-78.395L75.009,-82.064L74.749,-82.102C71.928,-82.512 69.005,-82.861 66.056,-83.141L66.056,-84.201C69.141,-83.908 72.196,-83.538 75.144,-83.101L75.49,-83.049L75.49,-87.035L75.232,-87.073C70.443,-87.783 65.39,-88.313 60.212,-88.648L59.89,-88.669L59.89,-74.827L60.173,-74.809C65.373,-74.473 70.447,-73.939 75.254,-73.223L75.602,-73.171L75.602,-77.102L75.344,-77.14C72.334,-77.588 69.21,-77.967 66.056,-78.266M-18.709,-71.825C-22.35,-71.636 -24.954,-72.258 -26.448,-73.676C-27.562,-74.734 -28.104,-76.224 -28.104,-78.232C-28.104,-82.889 -25.196,-85.117 -18.678,-85.456L-18.677,-85.456C-18.189,-85.482 -17.722,-85.496 -17.275,-85.496C-14.271,-85.496 -12.172,-84.896 -10.882,-83.674C-9.807,-82.656 -9.283,-81.203 -9.283,-79.232C-9.283,-74.528 -12.278,-72.175 -18.709,-71.825M-38.518,-71.271L-38.52,-71.271C-44.851,-71.3 -47.929,-73.598 -47.931,-78.298C-47.931,-80.248 -47.418,-81.706 -46.362,-82.757C-44.913,-84.2 -42.393,-84.902 -38.657,-84.902C-38.612,-84.902 -38.567,-84.901 -38.521,-84.901C-35.243,-84.901 -32.904,-84.372 -31.372,-83.284C-29.85,-82.205 -29.11,-80.548 -29.11,-78.22C-29.111,-73.544 -32.188,-71.271 -38.518,-71.271M-18.709,-86.061C-24.832,-85.742 -28.02,-83.706 -28.608,-79.687C-28.877,-81.476 -29.674,-82.822 -31.021,-83.778C-32.66,-84.941 -35.112,-85.506 -38.52,-85.507L-38.656,-85.507C-42.56,-85.507 -45.222,-84.748 -46.789,-83.187C-47.965,-82.016 -48.536,-80.416 -48.536,-78.298C-48.534,-73.263 -45.165,-70.695 -38.521,-70.666L-38.519,-70.666C-32.539,-70.666 -29.212,-72.725 -28.606,-76.791C-28.384,-75.317 -27.801,-74.125 -26.864,-73.237C-25.224,-71.678 -22.546,-71.019 -18.677,-71.22C-11.948,-71.586 -8.678,-74.207 -8.678,-79.232C-8.678,-81.378 -9.263,-82.975 -10.465,-84.113C-12.075,-85.638 -14.777,-86.274 -18.709,-86.061M-49.25,-72.029C-50.286,-72.077 -51.327,-72.134 -52.353,-72.197L-52.353,-73.924L-52.857,-73.473C-54.082,-72.377 -55.913,-71.933 -58.299,-72.153C-64.688,-72.761 -67.793,-75.379 -67.793,-80.159C-67.793,-82.075 -67.294,-83.46 -66.268,-84.393C-64.828,-85.701 -62.277,-86.16 -58.465,-85.795C-56.307,-85.605 -49.844,-85.034 -49.333,-80.522C-51.314,-80.616 -53.284,-80.737 -55.195,-80.882C-55.408,-81.309 -56.032,-82.106 -58.373,-82.317C-59.8,-82.451 -60.815,-82.222 -61.48,-81.616C-62.036,-81.11 -62.318,-80.346 -62.319,-79.347C-62.319,-76.894 -61.011,-75.58 -58.317,-75.328C-56.089,-75.125 -55.13,-75.824 -54.89,-76.042C-54.72,-76.198 -54.633,-76.352 -54.633,-76.499L-54.632,-76.78L-54.913,-76.801C-55.785,-76.866 -56.655,-76.937 -57.506,-77.012L-57.506,-79.407C-54.831,-79.172 -52.058,-78.987 -49.25,-78.855L-49.25,-72.029ZM-57.781,-80.039L-58.111,-80.068L-58.111,-76.458L-57.835,-76.433C-57.125,-76.37 -56.398,-76.309 -55.667,-76.251C-56.119,-76.032 -56.943,-75.812 -58.262,-75.931C-60.649,-76.154 -61.714,-77.208 -61.714,-79.346C-61.713,-80.18 -61.504,-80.776 -61.073,-81.168C-60.548,-81.646 -59.659,-81.829 -58.429,-81.714C-56.881,-81.575 -55.956,-81.162 -55.679,-80.48L-55.608,-80.307L-55.422,-80.292C-53.339,-80.132 -51.185,-80 -49.018,-79.901L-48.686,-79.886L-48.701,-80.218C-48.869,-83.814 -52.045,-85.836 -58.409,-86.398C-62.398,-86.78 -65.102,-86.271 -66.675,-84.841C-67.834,-83.787 -68.398,-82.255 -68.398,-80.159C-68.398,-75.081 -65.021,-72.184 -58.355,-71.55C-56.095,-71.342 -54.284,-71.703 -52.958,-72.624L-52.958,-71.628L-52.674,-71.61C-51.449,-71.533 -50.2,-71.465 -48.962,-71.409L-48.645,-71.395L-48.645,-79.434L-48.934,-79.447C-51.946,-79.584 -54.923,-79.784 -57.781,-80.039M30.059,-84.795C28.495,-84.727 26.854,-84.646 25.173,-84.555L24.887,-84.539L24.887,-75.271C23.298,-75.184 21.634,-75.086 19.932,-74.979L19.932,-84.247L19.609,-84.227C18.065,-84.129 16.476,-84.023 14.76,-83.905L14.76,-87.265C20.68,-87.673 25.559,-87.958 30.059,-88.156L30.059,-84.795ZM14.436,-87.849L14.154,-87.83L14.154,-83.256L14.478,-83.278C16.197,-83.397 17.787,-83.504 19.326,-83.602L19.326,-74.333L19.647,-74.354C21.563,-74.476 23.434,-74.586 25.206,-74.682L25.492,-74.697L25.492,-83.965C27.174,-84.056 28.815,-84.135 30.374,-84.203L30.664,-84.215L30.664,-88.788L30.348,-88.775C25.685,-88.573 20.628,-88.279 14.436,-87.849M-35.862,-76.16C-36.401,-75.622 -37.291,-75.349 -38.507,-75.349L-38.52,-75.349C-40.762,-75.357 -41.852,-76.264 -41.851,-78.121C-41.851,-78.963 -41.636,-79.586 -41.194,-80.026C-40.664,-80.555 -39.774,-80.823 -38.551,-80.823L-38.521,-80.823C-36.248,-80.819 -35.19,-79.954 -35.19,-78.1C-35.19,-77.258 -35.416,-76.605 -35.862,-76.16M-38.52,-81.429C-39.935,-81.435 -40.969,-81.106 -41.622,-80.455C-42.176,-79.903 -42.456,-79.118 -42.456,-78.121C-42.457,-76.586 -41.774,-74.755 -38.521,-74.744L-38.507,-74.744C-37.125,-74.744 -36.091,-75.076 -35.435,-75.732C-34.87,-76.295 -34.585,-77.092 -34.585,-78.1C-34.585,-80.305 -35.908,-81.424 -38.52,-81.429M0,-77.451C-0.745,-77.396 -1.489,-77.342 -2.233,-77.287L-2.233,-82.13C-1.474,-82.185 -0.715,-82.241 0.044,-82.297C1.192,-82.382 1.931,-82.234 2.365,-81.831C2.73,-81.492 2.907,-80.929 2.907,-80.111C2.908,-78.329 2.119,-77.608 0,-77.451M0,-82.901C-0.853,-82.838 -1.705,-82.775 -2.558,-82.713L-2.839,-82.693L-2.839,-76.636L-2.514,-76.66C-1.661,-76.722 -0.809,-76.784 0.044,-76.847C2.476,-77.027 3.514,-78.003 3.513,-80.111C3.513,-81.106 3.272,-81.814 2.777,-82.275C2.211,-82.8 1.328,-83 0,-82.901M1.52,-73.671C-1.943,-73.414 -4.868,-73.2 -7.794,-72.999L-7.794,-85.627C-4.614,-85.846 -1.42,-86.081 1.564,-86.302C4.488,-86.521 6.386,-86.127 7.531,-85.063C8.512,-84.154 8.987,-82.681 8.987,-80.561C8.987,-76.004 6.894,-74.072 1.52,-73.671M1.52,-86.906C-1.553,-86.678 -4.847,-86.436 -8.117,-86.211L-8.399,-86.192L-8.399,-72.351L-8.076,-72.373C-5.04,-72.581 -2.026,-72.801 1.564,-73.067C7.267,-73.493 9.593,-75.664 9.593,-80.561C9.593,-82.859 9.054,-84.477 7.943,-85.507C6.666,-86.693 4.624,-87.138 1.52,-86.906M-18.709,-55.297C-22.35,-55.108 -24.954,-55.73 -26.448,-57.148C-27.562,-58.206 -28.104,-59.696 -28.104,-61.704C-28.104,-66.361 -25.196,-68.589 -18.678,-68.928L-18.677,-68.928C-18.189,-68.955 -17.723,-68.968 -17.275,-68.968C-14.271,-68.968 -12.172,-68.368 -10.882,-67.146C-9.807,-66.128 -9.283,-64.675 -9.283,-62.704C-9.283,-58 -12.278,-55.647 -18.709,-55.297M-38.518,-54.743L-38.52,-54.743C-44.851,-54.772 -47.929,-57.07 -47.931,-61.77C-47.931,-63.719 -47.418,-65.178 -46.362,-66.229C-44.913,-67.672 -42.393,-68.374 -38.657,-68.374L-38.521,-68.374C-35.243,-68.373 -32.904,-67.844 -31.372,-66.756C-29.85,-65.677 -29.11,-64.02 -29.11,-61.692C-29.111,-57.016 -32.188,-54.743 -38.518,-54.743M-18.709,-69.533C-24.832,-69.214 -28.02,-67.178 -28.608,-63.159C-28.877,-64.948 -29.674,-66.294 -31.021,-67.25C-32.66,-68.413 -35.112,-68.979 -38.52,-68.979C-42.499,-68.997 -45.203,-68.238 -46.789,-66.659C-47.965,-65.488 -48.536,-63.889 -48.536,-61.77C-48.534,-56.736 -45.165,-54.167 -38.521,-54.138L-38.519,-54.138C-32.539,-54.138 -29.212,-56.197 -28.606,-60.263C-28.384,-58.789 -27.801,-57.597 -26.865,-56.709C-25.224,-55.151 -22.546,-54.492 -18.677,-54.692C-11.948,-55.059 -8.678,-57.679 -8.678,-62.704C-8.678,-64.851 -9.263,-66.447 -10.465,-67.585C-12.075,-69.11 -14.777,-69.747 -18.709,-69.533M30.059,-68.268C28.495,-68.199 26.854,-68.118 25.173,-68.027L24.887,-68.011L24.887,-58.743C23.299,-58.656 21.671,-58.56 19.932,-58.451L19.932,-67.719L19.609,-67.699C18.074,-67.602 16.484,-67.496 14.76,-67.377L14.76,-70.737C20.68,-71.146 25.559,-71.43 30.059,-71.628L30.059,-68.268ZM14.436,-71.321L14.154,-71.302L14.154,-66.728L14.478,-66.75C16.205,-66.87 17.795,-66.977 19.326,-67.074L19.326,-57.806L19.647,-57.826C21.613,-57.951 23.432,-58.058 25.206,-58.154L25.492,-58.169L25.492,-67.437C27.174,-67.528 28.815,-67.608 30.374,-67.675L30.664,-67.687L30.664,-72.261L30.348,-72.247C25.685,-72.045 20.628,-71.751 14.436,-71.321M58.521,-58.988C56.904,-59.079 55.24,-59.154 53.566,-59.211L53.566,-67.551L52.942,-67.573L52.867,-67.367C51.892,-64.687 50.915,-62 49.938,-59.307C48.735,-59.329 47.502,-59.344 46.266,-59.349C45.276,-62.085 44.287,-64.817 43.298,-67.542L43.225,-67.743L42.6,-67.74L42.6,-59.342C41.098,-59.33 39.546,-59.305 37.978,-59.269L37.978,-71.898C40.662,-71.96 43.295,-71.988 45.81,-71.98C46.455,-69.855 47.101,-67.729 47.746,-65.599L47.811,-65.387L48.371,-65.38L48.438,-65.597C49.082,-67.709 49.728,-69.82 50.372,-71.927C53.15,-71.87 55.89,-71.765 58.521,-71.616L58.521,-58.988ZM50.155,-72.537L49.927,-72.542L49.86,-72.323C49.271,-70.398 48.682,-68.472 48.093,-66.543C47.503,-68.488 46.914,-70.43 46.324,-72.371L46.259,-72.584L46.035,-72.585C43.355,-72.594 40.54,-72.565 37.667,-72.496L37.372,-72.489L37.372,-58.649L37.682,-58.656C39.458,-58.699 41.215,-58.727 42.904,-58.739L43.205,-58.741L43.205,-66.024C44.06,-63.668 44.914,-61.308 45.769,-58.945L45.841,-58.746L46.052,-58.745C47.431,-58.739 48.807,-58.723 50.144,-58.697L50.36,-58.693L50.435,-58.896C51.276,-61.22 52.118,-63.538 52.961,-65.853L52.961,-58.625L53.254,-58.616C55.133,-58.554 57.001,-58.47 58.807,-58.365L59.127,-58.346L59.127,-72.187L58.842,-72.204C56.043,-72.367 53.121,-72.479 50.155,-72.537M1.52,-57.144C-1.943,-56.886 -4.868,-56.672 -7.794,-56.471L-7.794,-69.099C-4.614,-69.318 -1.42,-69.553 1.564,-69.774C4.488,-69.993 6.386,-69.599 7.531,-68.535C8.512,-67.626 8.987,-66.153 8.987,-64.033C8.987,-59.476 6.894,-57.544 1.52,-57.144M1.52,-70.378C-1.553,-70.15 -4.847,-69.908 -8.117,-69.684L-8.399,-69.665L-8.399,-55.823L-8.076,-55.845C-5.04,-56.053 -2.026,-56.273 1.564,-56.54C7.267,-56.965 9.593,-59.136 9.593,-64.033C9.593,-66.331 9.054,-67.949 7.943,-68.979C6.665,-70.165 4.624,-70.61 1.52,-70.378M-35.862,-59.632C-36.401,-59.094 -37.291,-58.821 -38.507,-58.821L-38.52,-58.821C-40.762,-58.829 -41.852,-59.736 -41.851,-61.593C-41.851,-62.435 -41.636,-63.059 -41.194,-63.499C-40.664,-64.027 -39.774,-64.295 -38.551,-64.295L-38.521,-64.295C-36.248,-64.292 -35.19,-63.426 -35.19,-61.572C-35.19,-60.73 -35.416,-60.078 -35.862,-59.632M-38.52,-64.901L-38.551,-64.901C-39.94,-64.901 -40.974,-64.574 -41.622,-63.927C-42.176,-63.375 -42.456,-62.59 -42.456,-61.593C-42.457,-60.059 -41.774,-58.227 -38.521,-58.216L-38.507,-58.216C-37.125,-58.216 -36.091,-58.548 -35.435,-59.204C-34.87,-59.767 -34.585,-60.564 -34.585,-61.572C-34.585,-63.777 -35.908,-64.896 -38.52,-64.901M-49.25,-55.501C-50.286,-55.55 -51.327,-55.606 -52.353,-55.669L-52.353,-57.396L-52.857,-56.945C-54.082,-55.85 -55.914,-55.405 -58.299,-55.625C-64.688,-56.233 -67.793,-58.852 -67.793,-63.631C-67.793,-65.547 -67.294,-66.933 -66.268,-67.865C-64.828,-69.173 -62.277,-69.632 -58.465,-69.268C-56.307,-69.077 -49.844,-68.506 -49.333,-63.995C-51.316,-64.088 -53.286,-64.209 -55.195,-64.354C-55.408,-64.781 -56.032,-65.579 -58.373,-65.79C-59.8,-65.923 -60.815,-65.694 -61.48,-65.088C-62.036,-64.582 -62.318,-63.818 -62.319,-62.819C-62.319,-60.366 -61.011,-59.052 -58.317,-58.8C-56.089,-58.597 -55.13,-59.296 -54.89,-59.515C-54.72,-59.67 -54.633,-59.824 -54.633,-59.971L-54.632,-60.252L-54.913,-60.273C-55.785,-60.338 -56.655,-60.409 -57.506,-60.484L-57.506,-62.879C-54.831,-62.645 -52.058,-62.459 -49.25,-62.328L-49.25,-55.501ZM-57.781,-63.511L-58.111,-63.541L-58.111,-59.93L-57.835,-59.905C-57.125,-59.842 -56.398,-59.781 -55.667,-59.724C-56.119,-59.504 -56.943,-59.284 -58.262,-59.403C-60.649,-59.626 -61.714,-60.68 -61.714,-62.818C-61.713,-63.652 -61.504,-64.248 -61.073,-64.64C-60.548,-65.118 -59.659,-65.301 -58.429,-65.187C-56.881,-65.047 -55.956,-64.634 -55.679,-63.952L-55.608,-63.779L-55.422,-63.764C-53.341,-63.604 -51.187,-63.473 -49.018,-63.374L-48.686,-63.358L-48.701,-63.69C-48.869,-67.287 -52.045,-69.308 -58.409,-69.871C-62.398,-70.252 -65.102,-69.743 -66.675,-68.313C-67.834,-67.259 -68.398,-65.728 -68.398,-63.631C-68.398,-58.553 -65.021,-55.656 -58.355,-55.022C-56.095,-54.813 -54.284,-55.175 -52.958,-56.096L-52.958,-55.101L-52.674,-55.083C-51.449,-55.005 -50.2,-54.938 -48.962,-54.881L-48.645,-54.867L-48.645,-62.906L-48.934,-62.919C-51.946,-63.057 -54.923,-63.256 -57.781,-63.511M74.996,-57.346C70.363,-58.025 65.487,-58.537 60.495,-58.867L60.495,-71.495C65.45,-71.166 70.288,-70.659 74.885,-69.985L74.885,-67.223C71.933,-67.654 68.871,-68.019 65.781,-68.308L65.45,-68.338L65.45,-66.062L65.725,-66.037C68.666,-65.762 71.584,-65.417 74.403,-65.013L74.403,-62.566C71.602,-62.967 68.702,-63.308 65.781,-63.581L65.45,-63.612L65.45,-61.187L65.725,-61.162C68.872,-60.868 71.989,-60.494 74.996,-60.051L74.996,-57.346ZM66.056,-61.738L66.056,-62.947C68.976,-62.669 71.869,-62.323 74.662,-61.917L75.009,-61.867L75.009,-65.537L74.749,-65.575C71.928,-65.984 69.005,-66.333 66.056,-66.613L66.056,-67.673C69.144,-67.379 72.199,-67.009 75.144,-66.573L75.49,-66.521L75.49,-70.507L75.232,-70.545C70.442,-71.255 65.389,-71.785 60.212,-72.12L59.89,-72.141L59.89,-58.299L60.173,-58.281C65.373,-57.945 70.447,-57.411 75.254,-56.695L75.602,-56.644L75.602,-60.574L75.344,-60.612C72.334,-61.06 69.21,-61.439 66.056,-61.738M0,-60.923C-0.745,-60.869 -1.489,-60.814 -2.233,-60.759L-2.233,-65.602C-1.474,-65.657 -0.715,-65.713 0.044,-65.769C1.192,-65.854 1.931,-65.707 2.365,-65.303C2.73,-64.964 2.907,-64.401 2.907,-63.583C2.908,-61.801 2.119,-61.081 0,-60.923M0,-66.373C-0.853,-66.31 -1.705,-66.248 -2.558,-66.186L-2.839,-66.165L-2.839,-60.108L-2.514,-60.132C-1.661,-60.194 -0.809,-60.257 0.044,-60.319C2.476,-60.5 3.514,-61.476 3.513,-63.583C3.513,-64.579 3.272,-65.287 2.777,-65.747C2.211,-66.272 1.328,-66.472 0,-66.373M36.495,-59.231C34.893,-59.187 33.229,-59.13 31.54,-59.062L31.54,-71.691C33.225,-71.759 34.889,-71.816 36.495,-71.86L36.495,-59.231ZM31.225,-72.284L30.935,-72.272L30.935,-58.431L31.25,-58.444C33.146,-58.522 35.017,-58.586 36.807,-58.634L37.101,-58.642L37.101,-72.482L36.79,-72.474C34.992,-72.426 33.12,-72.362 31.225,-72.284M-18.709,-59.375C-19.935,-59.311 -20.825,-59.537 -21.361,-60.046C-21.801,-60.463 -22.023,-61.098 -22.023,-61.934C-22.022,-63.804 -20.959,-64.73 -18.677,-64.85C-18.536,-64.857 -18.4,-64.861 -18.269,-64.861C-17.245,-64.861 -16.488,-64.635 -16.017,-64.187C-15.577,-63.771 -15.363,-63.159 -15.363,-62.317C-15.362,-60.458 -16.457,-59.496 -18.709,-59.375M-18.709,-65.455C-21.31,-65.319 -22.628,-64.134 -22.629,-61.934C-22.629,-60.926 -22.344,-60.143 -21.778,-59.607C-21.186,-59.043 -20.285,-58.759 -19.099,-58.759C-18.962,-58.759 -18.821,-58.763 -18.678,-58.771L-18.677,-58.771C-16.889,-58.866 -14.757,-59.559 -14.758,-62.317C-14.758,-63.32 -15.041,-64.097 -15.6,-64.627C-16.259,-65.251 -17.306,-65.529 -18.709,-65.455M-18.709,-38.769C-22.35,-38.581 -24.954,-39.203 -26.448,-40.621C-27.562,-41.678 -28.104,-43.168 -28.104,-45.176C-28.104,-49.833 -25.196,-52.061 -18.678,-52.4L-18.677,-52.4C-18.189,-52.427 -17.723,-52.44 -17.275,-52.44C-14.271,-52.44 -12.172,-51.84 -10.882,-50.618C-9.807,-49.6 -9.283,-48.147 -9.283,-46.176C-9.283,-41.473 -12.278,-39.119 -18.709,-38.769M-38.518,-38.215L-38.52,-38.215C-44.851,-38.244 -47.929,-40.542 -47.931,-45.242C-47.931,-47.192 -47.418,-48.65 -46.362,-49.702C-44.913,-51.144 -42.393,-51.846 -38.657,-51.846L-38.521,-51.846C-35.243,-51.846 -32.904,-51.316 -31.372,-50.229C-29.85,-49.149 -29.11,-47.492 -29.11,-45.165C-29.111,-40.489 -32.188,-38.215 -38.518,-38.215M-18.709,-53.005C-24.832,-52.687 -28.02,-50.65 -28.608,-46.631C-28.877,-48.42 -29.674,-49.766 -31.021,-50.723C-32.66,-51.885 -35.112,-52.451 -38.52,-52.451C-42.499,-52.464 -45.203,-51.71 -46.789,-50.131C-47.965,-48.96 -48.536,-47.361 -48.536,-45.242C-48.534,-40.208 -45.165,-37.639 -38.521,-37.61L-38.519,-37.61C-32.539,-37.61 -29.212,-39.669 -28.606,-43.735C-28.384,-42.261 -27.801,-41.07 -26.865,-40.181C-25.224,-38.623 -22.546,-37.964 -18.677,-38.165C-11.948,-38.531 -8.678,-41.151 -8.678,-46.176C-8.678,-48.323 -9.263,-49.919 -10.465,-51.058C-12.075,-52.582 -14.777,-53.219 -18.709,-53.005M58.521,-42.46C56.904,-42.551 55.24,-42.626 53.566,-42.683L53.566,-51.023L52.942,-51.045L52.867,-50.839C51.892,-48.158 50.915,-45.471 49.938,-42.779C48.739,-42.801 47.506,-42.816 46.266,-42.822C45.276,-45.558 44.287,-48.289 43.298,-51.015L43.225,-51.215L42.6,-51.212L42.6,-42.814C41.098,-42.802 39.546,-42.777 37.978,-42.741L37.978,-55.37C40.671,-55.432 43.303,-55.46 45.81,-55.453C46.455,-53.328 47.101,-51.201 47.746,-49.071L47.811,-48.86L48.141,-48.855L48.147,-49.158L48.145,-48.855L48.371,-48.853L48.438,-49.069C49.082,-51.182 49.728,-53.292 50.372,-55.399C53.15,-55.342 55.89,-55.237 58.521,-55.088L58.521,-42.46ZM50.155,-56.009L49.927,-56.014L49.86,-55.795C49.271,-53.871 48.682,-51.944 48.093,-50.016C47.503,-51.96 46.914,-53.902 46.324,-55.842L46.259,-56.056L46.035,-56.057C43.363,-56.067 40.549,-56.038 37.667,-55.968L37.372,-55.961L37.372,-42.121L37.682,-42.128C39.458,-42.171 41.215,-42.199 42.904,-42.211L43.205,-42.213L43.205,-49.496C44.06,-47.14 44.914,-44.781 45.769,-42.416L45.841,-42.217L46.052,-42.217C47.435,-42.211 48.811,-42.196 50.144,-42.169L50.36,-42.165L50.435,-42.369C51.276,-44.692 52.118,-47.01 52.961,-49.325L52.961,-42.097L53.254,-42.088C55.133,-42.027 57.001,-41.942 58.807,-41.837L59.127,-41.819L59.127,-55.66L58.842,-55.676C56.043,-55.839 53.121,-55.951 50.155,-56.009M1.52,-40.616C-1.943,-40.359 -4.868,-40.145 -7.794,-39.943L-7.794,-52.571C-4.833,-52.775 -1.9,-52.989 1.564,-53.247C4.488,-53.465 6.386,-53.071 7.531,-52.007C8.512,-51.098 8.987,-49.625 8.987,-47.505C8.987,-42.948 6.894,-41.016 1.52,-40.616M1.52,-53.851C-2.055,-53.585 -5.061,-53.365 -8.117,-53.156L-8.399,-53.137L-8.399,-39.294L-8.076,-39.317C-5.04,-39.525 -2.026,-39.746 1.564,-40.011C7.267,-40.437 9.593,-42.608 9.593,-47.505C9.593,-49.803 9.054,-51.421 7.943,-52.451C6.665,-53.637 4.624,-54.082 1.52,-53.851M0,-44.396C-0.745,-44.34 -1.489,-44.286 -2.233,-44.232L-2.233,-49.074C-1.474,-49.129 -0.715,-49.185 0.044,-49.241C1.192,-49.327 1.931,-49.179 2.365,-48.775C2.73,-48.436 2.907,-47.873 2.907,-47.055C2.908,-45.273 2.119,-44.553 0,-44.396M0,-49.845C-0.853,-49.782 -1.705,-49.72 -2.558,-49.658L-2.839,-49.637L-2.839,-43.581L-2.514,-43.604L0.044,-43.791C2.476,-43.972 3.514,-44.948 3.513,-47.055C3.513,-48.051 3.272,-48.759 2.777,-49.219C2.211,-49.745 1.328,-49.944 0,-49.845M36.495,-42.704C34.893,-42.66 33.229,-42.603 31.54,-42.535L31.54,-55.163C33.235,-55.231 34.899,-55.289 36.495,-55.333L36.495,-42.704ZM31.225,-55.756L30.935,-55.744L30.935,-41.904L31.25,-41.916C33.146,-41.995 35.017,-42.058 36.807,-42.106L37.101,-42.114L37.101,-55.955L36.79,-55.946C35.007,-55.899 33.134,-55.835 31.225,-55.756M-49.25,-38.973C-50.286,-39.022 -51.327,-39.079 -52.353,-39.141L-52.353,-40.869L-52.857,-40.417C-54.082,-39.322 -55.914,-38.877 -58.299,-39.097C-64.688,-39.706 -67.793,-42.324 -67.793,-47.103C-67.793,-49.02 -67.294,-50.405 -66.268,-51.337C-64.828,-52.646 -62.277,-53.104 -58.465,-52.74C-56.307,-52.549 -49.844,-51.978 -49.333,-47.467C-51.315,-47.561 -53.284,-47.682 -55.195,-47.826C-55.408,-48.253 -56.032,-49.051 -58.373,-49.262C-59.8,-49.396 -60.815,-49.166 -61.48,-48.56C-62.036,-48.054 -62.318,-47.291 -62.319,-46.291C-62.319,-43.838 -61.011,-42.524 -58.317,-42.272C-56.089,-42.069 -55.13,-42.768 -54.89,-42.987C-54.72,-43.142 -54.633,-43.295 -54.633,-43.443L-54.632,-43.725L-54.913,-43.746C-55.781,-43.81 -56.652,-43.881 -57.506,-43.957L-57.506,-46.351C-54.833,-46.117 -52.06,-45.932 -49.25,-45.8L-49.25,-38.973ZM-57.781,-46.983L-58.111,-47.013L-58.111,-43.402L-57.835,-43.377C-57.122,-43.314 -56.396,-43.253 -55.667,-43.196C-56.119,-42.977 -56.943,-42.756 -58.262,-42.875C-60.649,-43.098 -61.714,-44.152 -61.714,-46.291C-61.713,-47.125 -61.504,-47.72 -61.073,-48.112C-60.548,-48.59 -59.659,-48.774 -58.429,-48.659C-56.881,-48.519 -55.956,-48.106 -55.679,-47.424L-55.608,-47.25L-55.422,-47.236C-53.339,-47.077 -51.185,-46.945 -49.018,-46.846L-48.686,-46.831L-48.701,-47.162C-48.869,-50.759 -52.045,-52.78 -58.409,-53.343C-62.398,-53.725 -65.102,-53.215 -66.675,-51.786C-67.834,-50.731 -68.398,-49.2 -68.398,-47.103C-68.398,-42.025 -65.021,-39.128 -58.355,-38.494C-56.096,-38.286 -54.284,-38.647 -52.958,-39.568L-52.958,-38.573L-52.674,-38.555C-51.449,-38.478 -50.2,-38.41 -48.962,-38.354L-48.645,-38.339L-48.645,-46.378L-48.934,-46.392C-51.948,-46.529 -54.925,-46.728 -57.781,-46.983M-18.709,-42.847C-19.935,-42.783 -20.825,-43.009 -21.361,-43.518C-21.801,-43.935 -22.023,-44.571 -22.023,-45.406C-22.022,-47.276 -20.959,-48.203 -18.677,-48.322C-18.536,-48.33 -18.4,-48.333 -18.269,-48.333C-17.245,-48.333 -16.488,-48.107 -16.017,-47.66C-15.577,-47.243 -15.363,-46.631 -15.363,-45.789C-15.362,-43.93 -16.457,-42.967 -18.709,-42.847M-18.709,-48.927C-21.31,-48.791 -22.628,-47.606 -22.629,-45.407C-22.629,-44.398 -22.344,-43.615 -21.778,-43.079C-21.186,-42.515 -20.285,-42.231 -19.099,-42.231C-18.962,-42.231 -18.821,-42.235 -18.678,-42.243L-18.677,-42.243C-16.889,-42.338 -14.757,-43.031 -14.758,-45.789C-14.758,-46.792 -15.041,-47.569 -15.6,-48.1C-16.259,-48.724 -17.306,-49.001 -18.709,-48.927M-35.862,-43.105C-36.401,-42.567 -37.291,-42.293 -38.507,-42.293L-38.52,-42.293C-40.762,-42.301 -41.852,-43.208 -41.851,-45.065C-41.851,-45.908 -41.636,-46.531 -41.194,-46.971C-40.664,-47.5 -39.774,-47.768 -38.551,-47.768L-38.521,-47.768C-36.248,-47.764 -35.19,-46.898 -35.19,-45.044C-35.19,-44.203 -35.416,-43.55 -35.862,-43.105M-38.52,-48.373L-38.551,-48.373C-39.94,-48.373 -40.974,-48.046 -41.622,-47.399C-42.176,-46.848 -42.456,-46.062 -42.456,-45.065C-42.457,-43.531 -41.774,-41.7 -38.521,-41.688L-38.507,-41.688C-37.125,-41.688 -36.091,-42.02 -35.435,-42.676C-34.87,-43.239 -34.585,-44.036 -34.585,-45.044C-34.585,-47.249 -35.908,-48.369 -38.52,-48.373M74.996,-40.818C70.363,-41.498 65.487,-42.009 60.495,-42.339L60.495,-54.967C65.45,-54.638 70.288,-54.131 74.885,-53.457L74.885,-50.695C71.931,-51.126 68.87,-51.491 65.781,-51.78L65.45,-51.811L65.45,-49.534L65.725,-49.509C68.666,-49.234 71.584,-48.89 74.403,-48.485L74.403,-46.038C71.602,-46.439 68.702,-46.78 65.781,-47.053L65.45,-47.084L65.45,-44.66L65.725,-44.633C68.872,-44.339 71.989,-43.966 74.996,-43.524L74.996,-40.818ZM66.056,-45.21L66.056,-46.419C68.976,-46.141 71.869,-45.794 74.662,-45.389L75.009,-45.338L75.009,-49.009L74.749,-49.047C71.928,-49.457 69.005,-49.806 66.056,-50.085L66.056,-51.146C69.143,-50.852 72.198,-50.481 75.144,-50.045L75.49,-49.994L75.49,-53.979L75.232,-54.018C70.442,-54.728 65.389,-55.257 60.212,-55.592L59.89,-55.613L59.89,-41.772L60.173,-41.753C65.373,-41.416 70.447,-40.883 75.254,-40.167L75.602,-40.116L75.602,-44.045L75.344,-44.084C72.334,-44.533 69.21,-44.912 66.056,-45.21M30.059,-51.74C28.495,-51.671 26.854,-51.59 25.173,-51.499L24.887,-51.483L24.887,-42.215C23.299,-42.128 21.671,-42.033 19.932,-41.923L19.932,-51.191L19.609,-51.171C18.074,-51.074 16.484,-50.968 14.76,-50.849L14.76,-54.209C20.682,-54.618 25.561,-54.902 30.059,-55.1L30.059,-51.74ZM14.436,-54.793L14.154,-54.774L14.154,-50.2L14.478,-50.223C16.205,-50.342 17.795,-50.449 19.326,-50.546L19.326,-41.278L19.647,-41.298C21.613,-41.422 23.432,-41.53 25.206,-41.626L25.492,-41.642L25.492,-50.91C27.174,-51 28.815,-51.08 30.374,-51.147L30.664,-51.16L30.664,-55.733L30.348,-55.719C25.687,-55.517 20.63,-55.223 14.436,-54.793M0,-27.868C-0.745,-27.813 -1.489,-27.758 -2.233,-27.704L-2.233,-32.546C-1.474,-32.602 -0.715,-32.658 0.044,-32.713C1.193,-32.798 1.931,-32.651 2.365,-32.248C2.73,-31.909 2.907,-31.345 2.907,-30.527C2.908,-28.746 2.119,-28.025 0,-27.868M0,-33.318C-0.853,-33.254 -1.705,-33.192 -2.558,-33.129L-2.839,-33.109L-2.839,-27.052L-2.514,-27.076C-1.661,-27.138 -0.809,-27.201 0.044,-27.264C2.476,-27.444 3.514,-28.419 3.513,-30.527C3.513,-31.523 3.272,-32.231 2.777,-32.691C2.211,-33.217 1.328,-33.416 0,-33.318M58.521,-25.932C56.898,-26.024 55.234,-26.099 53.566,-26.156L53.566,-34.498L52.942,-34.517L52.867,-34.311C51.892,-31.63 50.915,-28.944 49.938,-26.25C48.735,-26.274 47.502,-26.288 46.266,-26.293C45.276,-29.03 44.287,-31.761 43.298,-34.487L43.225,-34.688L42.6,-34.684L42.6,-26.287C41.089,-26.274 39.537,-26.25 37.978,-26.213L37.978,-38.842C40.671,-38.905 43.303,-38.932 45.81,-38.924C46.455,-36.8 47.101,-34.673 47.746,-32.543L47.811,-32.331L48.371,-32.325L48.438,-32.541C49.082,-34.654 49.728,-36.764 50.372,-38.872C53.15,-38.814 55.89,-38.709 58.521,-38.561L58.521,-25.932ZM50.155,-39.482L49.927,-39.486L49.86,-39.268C49.271,-37.343 48.682,-35.416 48.093,-33.488C47.503,-35.432 46.914,-37.375 46.324,-39.315L46.259,-39.529L46.035,-39.53C43.363,-39.54 40.549,-39.51 37.667,-39.441L37.372,-39.433L37.372,-25.593L37.682,-25.6C39.445,-25.643 41.202,-25.67 42.904,-25.683L43.205,-25.685L43.205,-32.968C44.06,-30.612 44.914,-28.252 45.769,-25.889L45.841,-25.69L46.052,-25.689C47.43,-25.684 48.807,-25.667 50.144,-25.641L50.36,-25.637L50.435,-25.84C51.276,-28.164 52.118,-30.483 52.961,-32.796L52.961,-25.57L53.254,-25.56C55.125,-25.499 56.993,-25.415 58.807,-25.309L59.127,-25.291L59.127,-39.132L58.842,-39.149C56.043,-39.311 53.121,-39.423 50.155,-39.482M1.52,-24.087C-1.452,-23.867 -4.631,-23.633 -7.794,-23.416L-7.794,-36.043C-4.833,-36.247 -1.9,-36.461 1.564,-36.718C4.488,-36.938 6.386,-36.543 7.531,-35.48C8.512,-34.57 8.987,-33.097 8.987,-30.977C8.987,-26.42 6.894,-24.489 1.52,-24.087M1.52,-37.323C-2.055,-37.057 -5.061,-36.837 -8.117,-36.628L-8.399,-36.609L-8.399,-22.767L-8.076,-22.79C-4.806,-23.013 -1.51,-23.255 1.564,-23.484C7.267,-23.91 9.593,-26.08 9.593,-30.977C9.593,-33.275 9.054,-34.893 7.943,-35.923C6.666,-37.11 4.623,-37.553 1.52,-37.323M30.059,-35.211C28.495,-35.143 26.854,-35.062 25.173,-34.971L24.887,-34.956L24.887,-25.688C23.299,-25.6 21.671,-25.504 19.932,-25.395L19.932,-34.664L19.609,-34.643C18.104,-34.547 16.516,-34.442 14.76,-34.321L14.76,-37.681C20.678,-38.089 25.557,-38.375 30.059,-38.573L30.059,-35.211ZM14.436,-38.265L14.154,-38.246L14.154,-33.672L14.478,-33.695C16.235,-33.817 17.825,-33.922 19.326,-34.018L19.326,-24.75L19.647,-24.771C21.613,-24.895 23.432,-25.002 25.206,-25.098L25.492,-25.114L25.492,-34.382C27.174,-34.472 28.815,-34.552 30.374,-34.62L30.664,-34.632L30.664,-39.205L30.348,-39.191C25.683,-38.989 20.627,-38.695 14.436,-38.265M74.996,-24.29C70.363,-24.969 65.488,-25.481 60.495,-25.811L60.495,-38.439C65.452,-38.11 70.29,-37.603 74.885,-36.929L74.885,-34.167C71.928,-34.599 68.867,-34.963 65.781,-35.251L65.45,-35.283L65.45,-33.006L65.725,-32.981C68.666,-32.707 71.584,-32.362 74.403,-31.958L74.403,-29.51C71.598,-29.912 68.699,-30.252 65.781,-30.525L65.45,-30.556L65.45,-28.131L65.725,-28.106C68.872,-27.812 71.989,-27.439 74.996,-26.996L74.996,-24.29ZM66.056,-28.683L66.056,-29.891C68.972,-29.614 71.865,-29.267 74.662,-28.861L75.009,-28.811L75.009,-32.481L74.749,-32.519C71.928,-32.928 69.005,-33.278 66.056,-33.558L66.056,-34.618C69.14,-34.325 72.195,-33.955 75.144,-33.517L75.49,-33.466L75.49,-37.452L75.232,-37.49C70.444,-38.2 65.392,-38.729 60.212,-39.065L59.89,-39.085L59.89,-25.244L60.173,-25.225C65.373,-24.889 70.447,-24.356 75.254,-23.639L75.602,-23.587L75.602,-27.518L75.344,-27.556C72.334,-28.004 69.21,-28.383 66.056,-28.683M36.495,-26.175C34.893,-26.131 33.229,-26.075 31.54,-26.006L31.54,-38.635C33.238,-38.704 34.902,-38.761 36.495,-38.804L36.495,-26.175ZM31.225,-39.228L30.935,-39.216L30.935,-25.375L31.25,-25.388C33.146,-25.467 35.017,-25.531 36.807,-25.579L37.101,-25.586L37.101,-39.426L36.79,-39.418C35.011,-39.371 33.138,-39.307 31.225,-39.228M-49.25,-22.446C-50.286,-22.494 -51.327,-22.55 -52.353,-22.614L-52.353,-24.34L-52.857,-23.889C-54.082,-22.793 -55.914,-22.35 -58.299,-22.569C-64.688,-23.177 -67.793,-25.796 -67.793,-30.575C-67.793,-32.492 -67.294,-33.876 -66.268,-34.809C-64.828,-36.118 -62.277,-36.577 -58.465,-36.212C-56.307,-36.021 -49.844,-35.45 -49.333,-30.939C-51.31,-31.033 -53.279,-31.153 -55.195,-31.298C-55.408,-31.726 -56.032,-32.523 -58.373,-32.734C-59.8,-32.868 -60.815,-32.638 -61.48,-32.033C-62.036,-31.526 -62.318,-30.763 -62.319,-29.763C-62.319,-27.311 -61.011,-25.996 -58.317,-25.745C-56.089,-25.542 -55.13,-26.241 -54.89,-26.459C-54.72,-26.615 -54.633,-26.768 -54.633,-26.916L-54.632,-27.197L-54.913,-27.218C-55.781,-27.283 -56.652,-27.353 -57.506,-27.428L-57.506,-29.824C-54.833,-29.589 -52.06,-29.404 -49.25,-29.272L-49.25,-22.446ZM-57.781,-30.456L-58.111,-30.485L-58.111,-26.875L-57.835,-26.849C-57.122,-26.786 -56.396,-26.725 -55.667,-26.668C-56.119,-26.449 -56.943,-26.228 -58.262,-26.347C-60.649,-26.571 -61.714,-27.624 -61.714,-29.763C-61.713,-30.596 -61.504,-31.193 -61.073,-31.584C-60.548,-32.062 -59.659,-32.246 -58.429,-32.13C-56.881,-31.992 -55.956,-31.579 -55.679,-30.896L-55.608,-30.723L-55.422,-30.708C-53.332,-30.548 -51.178,-30.416 -49.018,-30.318L-48.686,-30.303L-48.701,-30.634C-48.869,-34.231 -52.045,-36.252 -58.409,-36.815C-62.398,-37.197 -65.103,-36.687 -66.675,-35.257C-67.835,-34.204 -68.398,-32.671 -68.398,-30.575C-68.398,-25.498 -65.021,-22.601 -58.355,-21.966C-56.095,-21.757 -54.284,-22.12 -52.958,-23.04L-52.958,-22.045L-52.674,-22.027C-51.449,-21.95 -50.2,-21.882 -48.962,-21.826L-48.645,-21.812L-48.645,-29.851L-48.934,-29.864C-51.948,-30.001 -54.925,-30.201 -57.781,-30.456M-35.862,-26.577C-36.401,-26.039 -37.291,-25.766 -38.507,-25.766L-38.52,-25.766C-40.762,-25.774 -41.852,-26.68 -41.851,-28.538C-41.851,-29.379 -41.637,-30.002 -41.194,-30.443C-40.664,-30.972 -39.774,-31.24 -38.551,-31.24L-38.521,-31.24C-36.248,-31.236 -35.19,-30.371 -35.19,-28.516C-35.19,-27.674 -35.416,-27.022 -35.862,-26.577M-38.52,-31.845L-38.551,-31.845C-39.94,-31.845 -40.974,-31.518 -41.622,-30.872C-42.176,-30.32 -42.456,-29.535 -42.456,-28.538C-42.457,-27.002 -41.774,-25.171 -38.521,-25.16L-38.507,-25.16C-37.125,-25.16 -36.091,-25.493 -35.435,-26.149C-34.87,-26.711 -34.585,-27.508 -34.585,-28.516C-34.585,-30.721 -35.908,-31.841 -38.52,-31.845M-18.709,-26.32C-19.934,-26.255 -20.825,-26.481 -21.361,-26.991C-21.801,-27.408 -22.023,-28.042 -22.023,-28.878C-22.022,-30.749 -20.959,-31.675 -18.677,-31.794C-18.536,-31.802 -18.4,-31.806 -18.269,-31.806C-17.245,-31.806 -16.488,-31.58 -16.017,-31.132C-15.577,-30.715 -15.363,-30.103 -15.363,-29.261C-15.362,-27.402 -16.457,-26.44 -18.709,-26.32M-18.709,-32.399C-21.31,-32.263 -22.628,-31.079 -22.629,-28.878C-22.629,-27.871 -22.344,-27.087 -21.778,-26.551C-21.186,-25.988 -20.285,-25.704 -19.099,-25.704C-18.962,-25.704 -18.821,-25.708 -18.678,-25.714L-18.677,-25.714C-16.889,-25.81 -14.757,-26.502 -14.758,-29.261C-14.758,-30.264 -15.041,-31.041 -15.6,-31.572C-16.259,-32.196 -17.306,-32.474 -18.709,-32.399M-18.709,-22.242C-22.35,-22.051 -24.954,-22.674 -26.448,-24.092C-27.562,-25.15 -28.104,-26.64 -28.104,-28.648C-28.104,-33.305 -25.196,-35.533 -18.678,-35.873L-18.677,-35.873C-18.189,-35.899 -17.723,-35.913 -17.275,-35.913C-14.271,-35.913 -12.172,-35.312 -10.882,-34.09C-9.807,-33.073 -9.283,-31.62 -9.283,-29.649C-9.283,-24.945 -12.278,-22.591 -18.709,-22.242M-38.518,-21.688L-38.52,-21.688C-44.851,-21.716 -47.929,-24.014 -47.931,-28.714C-47.931,-30.664 -47.418,-32.123 -46.362,-33.174C-44.913,-34.617 -42.393,-35.318 -38.657,-35.318L-38.521,-35.318C-35.243,-35.318 -32.904,-34.789 -31.372,-33.701C-29.85,-32.621 -29.11,-30.964 -29.11,-28.636C-29.111,-23.96 -32.188,-21.688 -38.518,-21.688M-18.709,-36.477C-24.832,-36.159 -28.02,-34.122 -28.608,-30.103C-28.877,-31.892 -29.674,-33.239 -31.021,-34.195C-32.66,-35.358 -35.112,-35.923 -38.52,-35.923C-42.499,-35.931 -45.203,-35.182 -46.789,-33.603C-47.965,-32.432 -48.536,-30.833 -48.536,-28.714C-48.534,-23.68 -45.165,-21.112 -38.521,-21.083L-38.519,-21.083C-32.539,-21.083 -29.212,-23.141 -28.606,-27.208C-28.384,-25.733 -27.801,-24.541 -26.864,-23.654C-25.224,-22.095 -22.545,-21.436 -18.677,-21.637C-11.948,-22.002 -8.678,-24.624 -8.678,-29.649C-8.678,-31.794 -9.263,-33.391 -10.465,-34.53C-12.075,-36.054 -14.777,-36.69 -18.709,-36.477M-18.709,-5.713C-22.35,-5.524 -24.954,-6.147 -26.448,-7.565C-27.562,-8.623 -28.104,-10.113 -28.104,-12.121C-28.104,-16.778 -25.196,-19.005 -18.678,-19.345L-18.677,-19.345C-18.189,-19.372 -17.723,-19.384 -17.275,-19.384C-14.271,-19.384 -12.172,-18.785 -10.882,-17.562C-9.807,-16.544 -9.283,-15.091 -9.283,-13.121C-9.283,-8.417 -12.278,-6.063 -18.709,-5.713M-38.518,-5.16L-38.52,-5.16C-44.851,-5.188 -47.929,-7.487 -47.931,-12.186C-47.931,-14.136 -47.418,-15.594 -46.362,-16.646C-44.913,-18.088 -42.393,-18.791 -38.657,-18.791C-38.612,-18.791 -38.567,-18.791 -38.521,-18.79C-35.243,-18.79 -32.904,-18.261 -31.372,-17.173C-29.85,-16.093 -29.11,-14.437 -29.11,-12.109C-29.111,-7.433 -32.188,-5.16 -38.518,-5.16M-18.709,-19.95C-24.832,-19.63 -28.02,-17.594 -28.608,-13.575C-28.877,-15.365 -29.674,-16.71 -31.021,-17.666C-32.66,-18.83 -35.112,-19.395 -38.52,-19.395C-42.496,-19.414 -45.203,-18.655 -46.789,-17.075C-47.965,-15.905 -48.536,-14.305 -48.536,-12.186C-48.534,-7.152 -45.165,-4.584 -38.521,-4.554L-38.519,-4.554C-32.539,-4.554 -29.212,-6.614 -28.606,-10.679C-28.384,-9.206 -27.801,-8.014 -26.864,-7.125C-25.224,-5.567 -22.545,-4.908 -18.677,-5.109C-11.948,-5.475 -8.678,-8.095 -8.678,-13.121C-8.678,-15.267 -9.263,-16.864 -10.465,-18.002C-12.075,-19.527 -14.777,-20.163 -18.709,-19.95M-35.862,-10.049C-36.401,-9.51 -37.291,-9.238 -38.507,-9.238L-38.52,-9.238C-40.762,-9.246 -41.852,-10.152 -41.851,-12.009C-41.851,-12.852 -41.637,-13.475 -41.194,-13.915C-40.664,-14.444 -39.774,-14.712 -38.551,-14.712L-38.521,-14.712C-36.248,-14.708 -35.19,-13.843 -35.19,-11.989C-35.19,-11.147 -35.416,-10.495 -35.862,-10.049M-38.52,-15.318L-38.551,-15.318C-39.94,-15.318 -40.974,-14.99 -41.622,-14.344C-42.176,-13.792 -42.456,-13.006 -42.456,-12.009C-42.457,-10.475 -41.774,-8.644 -38.521,-8.632L-38.507,-8.632C-37.125,-8.632 -36.091,-8.964 -35.435,-9.621C-34.87,-10.183 -34.585,-10.98 -34.585,-11.989C-34.585,-14.193 -35.908,-15.313 -38.52,-15.318M1.52,-7.56C-1.452,-7.339 -4.631,-7.106 -7.794,-6.887L-7.794,-19.515C-4.852,-19.718 -1.914,-19.932 1.564,-20.191C4.49,-20.409 6.386,-20.015 7.531,-18.952C8.512,-18.042 8.987,-16.57 8.987,-14.45C8.987,-9.892 6.894,-7.96 1.52,-7.56M1.52,-20.794C-2.069,-20.528 -5.081,-20.308 -8.117,-20.1L-8.399,-20.081L-8.399,-6.239L-8.076,-6.261C-4.806,-6.486 -1.51,-6.728 1.564,-6.957C7.267,-7.381 9.593,-9.552 9.593,-14.45C9.593,-16.748 9.054,-18.366 7.943,-19.396C6.666,-20.582 4.623,-21.025 1.52,-20.794M36.495,-9.648C34.893,-9.604 33.229,-9.547 31.54,-9.479L31.54,-22.108C33.229,-22.176 34.893,-22.233 36.495,-22.277L36.495,-9.648ZM31.225,-22.701L30.935,-22.689L30.935,-8.848L31.25,-8.861C33.146,-8.939 35.017,-9.002 36.807,-9.05L37.101,-9.058L37.101,-22.899L36.79,-22.89C34.998,-22.843 33.125,-22.779 31.225,-22.701M74.996,-7.762C70.363,-8.442 65.488,-8.954 60.495,-9.284L60.495,-21.912C65.45,-21.583 70.288,-21.075 74.885,-20.401L74.885,-17.639C71.929,-18.071 68.868,-18.436 65.781,-18.724L65.45,-18.755L65.45,-16.479L65.725,-16.453C68.666,-16.178 71.584,-15.834 74.403,-15.429L74.403,-12.983C71.597,-13.384 68.697,-13.725 65.781,-13.998L65.45,-14.028L65.45,-11.604L65.725,-11.578C68.87,-11.285 71.988,-10.911 74.996,-10.468L74.996,-7.762ZM66.056,-12.155L66.056,-13.363C68.971,-13.085 71.864,-12.74 74.662,-12.333L75.009,-12.284L75.009,-15.954L74.749,-15.991C71.928,-16.401 69.005,-16.75 66.056,-17.03L66.056,-18.09C69.141,-17.796 72.196,-17.426 75.144,-16.99L75.49,-16.938L75.49,-20.923L75.232,-20.962C70.442,-21.671 65.389,-22.202 60.212,-22.537L59.89,-22.558L59.89,-8.716L60.173,-8.698C65.373,-8.361 70.447,-7.828 75.254,-7.112L75.602,-7.06L75.602,-10.99L75.344,-11.029C72.333,-11.477 69.209,-11.856 66.056,-12.155M-18.709,-9.791C-19.932,-9.728 -20.825,-9.954 -21.361,-10.462C-21.801,-10.879 -22.023,-11.515 -22.023,-12.35C-22.022,-14.22 -20.959,-15.147 -18.677,-15.267C-18.536,-15.274 -18.4,-15.278 -18.269,-15.278C-17.245,-15.278 -16.488,-15.052 -16.017,-14.604C-15.577,-14.187 -15.363,-13.575 -15.363,-12.733C-15.362,-10.874 -16.457,-9.912 -18.709,-9.791M-18.709,-15.872C-21.31,-15.735 -22.628,-14.551 -22.629,-12.351C-22.629,-11.342 -22.343,-10.559 -21.778,-10.023C-21.186,-9.46 -20.285,-9.175 -19.099,-9.175C-18.962,-9.175 -18.821,-9.179 -18.677,-9.187C-16.889,-9.283 -14.757,-9.975 -14.758,-12.733C-14.758,-13.736 -15.041,-14.513 -15.6,-15.043C-16.259,-15.667 -17.306,-15.946 -18.709,-15.872M0,-11.34C-0.745,-11.285 -1.489,-11.23 -2.233,-11.176L-2.233,-16.018C-1.474,-16.074 -0.715,-16.129 0.044,-16.186C1.193,-16.27 1.931,-16.123 2.365,-15.72C2.73,-15.38 2.907,-14.818 2.907,-14C2.908,-12.217 2.119,-11.497 0,-11.34M0,-16.79C-0.853,-16.727 -1.705,-16.664 -2.558,-16.602L-2.839,-16.582L-2.839,-10.525L-2.514,-10.548C-1.661,-10.61 -0.809,-10.673 0.044,-10.736C2.476,-10.916 3.514,-11.892 3.513,-14C3.513,-14.996 3.272,-15.704 2.777,-16.164C2.211,-16.689 1.328,-16.888 0,-16.79M30.059,-18.684C28.495,-18.615 26.854,-18.535 25.173,-18.443L24.887,-18.428L24.887,-9.16C23.299,-9.073 21.671,-8.977 19.932,-8.868L19.932,-18.135L19.609,-18.115C18.077,-18.018 16.488,-17.913 14.76,-17.793L14.76,-21.153C20.678,-21.562 25.557,-21.846 30.059,-22.044L30.059,-18.684ZM14.436,-21.738L14.154,-21.718L14.154,-17.145L14.478,-17.167C16.209,-17.287 17.799,-17.393 19.326,-17.491L19.326,-8.222L19.647,-8.243C21.613,-8.368 23.432,-8.474 25.206,-8.571L25.492,-8.586L25.492,-17.854C27.174,-17.944 28.815,-18.024 30.374,-18.091L30.664,-18.104L30.664,-22.677L30.348,-22.664C25.683,-22.461 20.627,-22.166 14.436,-21.738M58.521,-9.405C56.898,-9.496 55.234,-9.571 53.566,-9.627L53.566,-17.969L52.942,-17.99L52.867,-17.784C51.892,-15.103 50.915,-12.416 49.938,-9.723C48.735,-9.746 47.502,-9.76 46.266,-9.766C45.276,-12.502 44.287,-15.233 43.298,-17.959L43.225,-18.161L42.6,-18.157L42.6,-9.758C41.089,-9.746 39.537,-9.721 37.978,-9.685L37.978,-22.314C40.671,-22.376 43.303,-22.404 45.81,-22.397C46.455,-20.272 47.101,-18.145 47.746,-16.015L47.811,-15.803L48.371,-15.797L48.438,-16.014C49.082,-18.126 49.728,-20.236 50.372,-22.344C53.146,-22.287 55.886,-22.182 58.521,-22.033L58.521,-9.405ZM50.155,-22.954L49.927,-22.958L49.86,-22.74C49.271,-20.815 48.682,-18.888 48.093,-16.959C47.503,-18.904 46.914,-20.846 46.324,-22.787L46.259,-23L46.035,-23.001C43.363,-23.012 40.549,-22.982 37.667,-22.913L37.372,-22.906L37.372,-9.065L37.682,-9.073C39.445,-9.115 41.202,-9.143 42.904,-9.156L43.205,-9.158L43.205,-16.441C44.06,-14.084 44.914,-11.725 45.769,-9.361L45.841,-9.162L46.052,-9.162C47.43,-9.156 48.807,-9.14 50.144,-9.114L50.36,-9.109L50.435,-9.313C51.276,-11.636 52.118,-13.955 52.961,-16.269L52.961,-9.041L53.254,-9.033C55.125,-8.971 56.993,-8.887 58.807,-8.782L59.127,-8.763L59.127,-22.604L58.842,-22.621C56.038,-22.784 53.116,-22.896 50.155,-22.954M-49.25,-5.917C-50.289,-5.966 -51.329,-6.023 -52.353,-6.085L-52.353,-7.813L-52.857,-7.362C-54.082,-6.266 -55.914,-5.823 -58.299,-6.041C-64.688,-6.649 -67.793,-9.268 -67.793,-14.047C-67.793,-15.963 -67.294,-17.349 -66.268,-18.282C-64.828,-19.59 -62.277,-20.049 -58.465,-19.684C-56.307,-19.494 -49.844,-18.922 -49.333,-14.411C-51.31,-14.504 -53.279,-14.625 -55.195,-14.771C-55.408,-15.198 -56.032,-15.995 -58.373,-16.206C-59.8,-16.34 -60.815,-16.11 -61.48,-15.504C-62.036,-14.999 -62.318,-14.235 -62.319,-13.235C-62.319,-10.783 -61.011,-9.468 -58.317,-9.216C-56.089,-9.014 -55.13,-9.712 -54.89,-9.931C-54.72,-10.086 -54.633,-10.24 -54.633,-10.387L-54.632,-10.669L-54.913,-10.69C-55.781,-10.754 -56.652,-10.826 -57.506,-10.901L-57.506,-13.295C-54.829,-13.061 -52.055,-12.875 -49.25,-12.745L-49.25,-5.917ZM-57.781,-13.928L-58.111,-13.958L-58.111,-10.346L-57.835,-10.322C-57.122,-10.258 -56.396,-10.198 -55.667,-10.14C-56.119,-9.921 -56.943,-9.701 -58.262,-9.819C-60.649,-10.042 -61.714,-11.096 -61.714,-13.235C-61.713,-14.069 -61.504,-14.665 -61.073,-15.057C-60.548,-15.535 -59.659,-15.718 -58.429,-15.603C-56.881,-15.463 -55.956,-15.05 -55.679,-14.369L-55.608,-14.195L-55.422,-14.18C-53.332,-14.02 -51.178,-13.889 -49.018,-13.791L-48.686,-13.775L-48.701,-14.107C-48.869,-17.703 -52.045,-19.725 -58.409,-20.288C-62.398,-20.669 -65.103,-20.16 -66.675,-18.73C-67.835,-17.676 -68.398,-16.144 -68.398,-14.047C-68.398,-8.969 -65.021,-6.073 -58.355,-5.439C-56.095,-5.229 -54.284,-5.591 -52.958,-6.512L-52.958,-5.517L-52.674,-5.5C-51.453,-5.422 -50.204,-5.355 -48.962,-5.298L-48.645,-5.284L-48.645,-13.323L-48.934,-13.335C-51.943,-13.473 -54.92,-13.672 -57.781,-13.928M48.147,0.425C48.11,0.425 48.073,0.424 48.036,0.424C47.369,-1.777 46.701,-3.975 46.034,-6.171C43.248,-6.181 40.461,-6.149 37.675,-6.083L37.675,7.153C39.417,7.111 41.159,7.083 42.901,7.07L42.901,-1.328L43.013,-1.328C44.026,1.463 45.04,4.261 46.053,7.064C47.419,7.069 48.784,7.084 50.149,7.112C51.15,4.351 52.151,1.596 53.152,-1.152C53.189,-1.151 53.227,-1.15 53.264,-1.148L53.264,7.193C55.117,7.253 56.971,7.336 58.824,7.444L58.824,-5.791C55.933,-5.958 53.041,-6.066 50.149,-6.124C49.482,-3.943 48.815,-1.76 48.147,0.425M65.753,2.832C68.737,3.111 71.721,3.461 74.706,3.895L74.706,0.836C71.721,0.403 68.737,0.052 65.753,-0.227L65.753,-1.895C68.897,-1.601 72.043,-1.227 75.188,-0.761L75.188,-4.134C70.189,-4.875 65.19,-5.383 60.191,-5.707L60.191,7.528C65.228,7.854 70.263,8.367 75.299,9.117L75.299,5.798C72.117,5.325 68.935,4.946 65.753,4.648L65.753,2.832ZM-18.693,7.039C-21.213,7.17 -22.327,6.123 -22.326,4.177C-22.325,2.23 -21.215,1.091 -18.693,0.959C-16.172,0.824 -15.061,1.847 -15.061,3.794C-15.06,5.74 -16.173,6.904 -18.693,7.039M-18.693,-3.12C-25.273,-2.777 -28.406,-0.438 -28.406,4.408C-28.406,9.238 -25.273,11.459 -18.693,11.117C-12.112,10.758 -8.98,8.238 -8.98,3.407C-8.981,-1.438 -12.111,-3.477 -18.693,-3.12M31.237,7.365C33.091,7.288 34.944,7.224 36.798,7.174L36.798,-6.06C34.944,-6.011 33.091,-5.947 31.237,-5.871L31.237,7.365ZM0.021,5.49C-0.831,5.553 -1.684,5.616 -2.536,5.677L-2.536,0.228L0.021,0.041C2.228,-0.124 3.211,0.544 3.21,2.528C3.211,4.511 2.228,5.327 0.021,5.49M1.542,-3.965C-1.671,-3.726 -4.884,-3.491 -8.097,-3.27L-8.097,9.964C-4.884,9.745 -1.671,9.508 1.542,9.27C6.899,8.871 9.29,6.916 9.29,2.079C9.29,-2.76 6.899,-4.365 1.542,-3.965M14.457,-0.941C16.181,-1.061 17.904,-1.176 19.629,-1.286L19.629,7.983C21.482,7.866 23.336,7.755 25.189,7.655L25.189,-1.613C26.913,-1.707 28.637,-1.791 30.361,-1.867L30.361,-5.833C25.06,-5.603 19.758,-5.276 14.457,-4.908L14.457,-0.941ZM-57.809,5.905C-56.851,5.99 -55.893,6.068 -54.936,6.14C-54.936,6.359 -55.898,7.226 -58.29,7.01C-60.901,6.766 -62.017,5.532 -62.016,3.292C-62.016,1.343 -60.903,0.388 -58.401,0.624C-55.862,0.852 -55.51,1.773 -55.398,2.045C-53.267,2.209 -51.136,2.337 -49.004,2.435C-49.152,-0.745 -51.802,-2.872 -58.438,-3.458C-64.963,-4.083 -68.096,-2.359 -68.096,2.481C-68.096,7.316 -64.963,10.157 -58.327,10.788C-55.936,11.008 -53.99,10.586 -52.655,9.392L-52.655,10.726C-51.419,10.804 -50.184,10.872 -48.947,10.927L-48.947,3.495C-51.901,3.36 -54.854,3.166 -57.809,2.902L-57.809,5.905ZM-38.521,7.593C-41.041,7.584 -42.154,6.462 -42.153,4.518C-42.153,2.57 -41.041,1.504 -38.521,1.513C-36,1.517 -34.888,2.59 -34.888,4.54C-34.887,6.483 -36,7.597 -38.521,7.593M-38.521,-2.565C-45.101,-2.594 -48.234,-0.51 -48.233,4.341C-48.231,9.166 -45.101,11.641 -38.521,11.67C-31.94,11.671 -28.809,9.243 -28.808,4.419C-28.807,-0.433 -31.94,-2.565 -38.521,-2.565" style="fill:currentColor;fill-rule:nonzero;"/>
        </g>
    </g>
</svg>
