<?xml version="1.0" encoding="UTF-8" standalone="no"?>
<!DOCTYPE svg PUBLIC "-//W3C//DTD SVG 1.1//EN" "http://www.w3.org/Graphics/SVG/1.1/DTD/svg11.dtd">
<svg width="100%" height="100%" viewBox="0 0 146 19" version="1.1" xmlns="http://www.w3.org/2000/svg" xmlns:xlink="http://www.w3.org/1999/xlink" xml:space="preserve" xmlns:serif="http://www.serif.com/" style="fill-rule:evenodd;clip-rule:evenodd;stroke-linejoin:round;stroke-miterlimit:2;">
    <g id="Artboard1" transform="matrix(0.96465,0,0,0.929361,3.4629,1.8316)">
        <rect x="-3.59" y="-1.971" width="150.395" height="20.131" style="fill:none;"/>
        <clipPath id="_clip1">
            <rect x="-3.59" y="-1.971" width="150.395" height="20.131"/>
        </clipPath>
        <g clip-path="url(#_clip1)">
            <g transform="matrix(1.03664,0,0,1.07601,67.9181,112.323)">
                <path d="M0,-93.979C-0.745,-93.924 -1.489,-93.87 -2.233,-93.815L-2.233,-98.658C-1.474,-98.713 -0.715,-98.769 0.044,-98.825C1.194,-98.91 1.931,-98.762 2.365,-98.359C2.73,-98.02 2.907,-97.457 2.907,-96.639C2.908,-94.857 2.119,-94.136 0,-93.979M0,-99.429C-0.853,-99.366 -1.705,-99.303 -2.558,-99.241L-2.839,-99.22L-2.839,-93.164L-2.514,-93.187C-1.661,-93.25 -0.809,-93.312 0.044,-93.375C2.476,-93.555 3.514,-94.531 3.513,-96.639C3.513,-97.634 3.272,-98.342 2.777,-98.803C2.211,-99.328 1.329,-99.527 0,-99.429M-49.25,-88.557C-50.297,-88.606 -51.337,-88.662 -52.353,-88.725L-52.353,-90.452L-52.857,-90.001C-54.082,-88.905 -55.913,-88.461 -58.299,-88.681C-64.688,-89.289 -67.793,-91.907 -67.793,-96.687C-67.793,-98.603 -67.294,-99.988 -66.268,-100.921C-64.828,-102.229 -62.277,-102.688 -58.465,-102.323C-56.307,-102.132 -49.844,-101.562 -49.333,-97.05C-51.314,-97.144 -53.284,-97.265 -55.195,-97.41C-55.408,-97.837 -56.032,-98.634 -58.373,-98.845C-59.8,-98.979 -60.814,-98.75 -61.48,-98.144C-62.036,-97.638 -62.318,-96.874 -62.319,-95.874C-62.319,-93.422 -61.011,-92.107 -58.317,-91.855C-56.088,-91.654 -55.13,-92.352 -54.89,-92.571C-54.72,-92.726 -54.633,-92.879 -54.633,-93.026L-54.632,-93.308L-54.913,-93.329C-55.785,-93.394 -56.655,-93.465 -57.506,-93.54L-57.506,-95.935C-54.827,-95.7 -52.054,-95.515 -49.25,-95.383L-49.25,-88.557ZM-57.781,-96.567L-58.111,-96.596L-58.111,-92.986L-57.835,-92.961C-57.125,-92.897 -56.398,-92.836 -55.667,-92.779C-56.12,-92.56 -56.943,-92.339 -58.262,-92.458C-60.649,-92.682 -61.714,-93.735 -61.714,-95.874C-61.713,-96.708 -61.504,-97.304 -61.073,-97.696C-60.548,-98.174 -59.658,-98.358 -58.429,-98.242C-56.881,-98.103 -55.956,-97.689 -55.679,-97.008L-55.608,-96.834L-55.422,-96.82C-53.339,-96.66 -51.185,-96.528 -49.018,-96.429L-48.686,-96.414L-48.701,-96.746C-48.869,-100.342 -52.045,-102.364 -58.409,-102.926C-62.398,-103.308 -65.102,-102.799 -66.675,-101.369C-67.834,-100.315 -68.398,-98.783 -68.398,-96.687C-68.398,-91.608 -65.021,-88.712 -58.355,-88.078C-56.095,-87.87 -54.284,-88.23 -52.958,-89.151L-52.958,-88.156L-52.674,-88.139C-51.465,-88.062 -50.215,-87.994 -48.962,-87.937L-48.645,-87.922L-48.645,-95.962L-48.934,-95.975C-51.942,-96.112 -54.919,-96.311 -57.781,-96.567M-18.709,-88.353C-22.35,-88.163 -24.954,-88.786 -26.448,-90.204C-27.562,-91.261 -28.104,-92.751 -28.104,-94.76C-28.104,-99.416 -25.196,-101.645 -18.678,-101.984L-18.677,-101.984C-18.189,-102.01 -17.722,-102.023 -17.275,-102.023C-14.271,-102.023 -12.172,-101.423 -10.882,-100.202C-9.807,-99.184 -9.283,-97.73 -9.283,-95.76C-9.283,-91.056 -12.278,-88.703 -18.709,-88.353M-38.518,-87.799L-38.52,-87.799C-44.851,-87.827 -47.929,-90.126 -47.931,-94.826C-47.931,-96.775 -47.418,-98.234 -46.362,-99.285C-44.913,-100.728 -42.393,-101.43 -38.657,-101.43C-38.612,-101.43 -38.567,-101.429 -38.521,-101.429C-35.243,-101.429 -32.904,-100.9 -31.372,-99.812C-29.85,-98.732 -29.11,-97.076 -29.11,-94.748C-29.111,-90.072 -32.188,-87.799 -38.518,-87.799M-18.709,-102.588C-24.832,-102.27 -28.02,-100.233 -28.608,-96.214C-28.877,-98.003 -29.674,-99.35 -31.021,-100.306C-32.66,-101.469 -35.112,-102.034 -38.52,-102.035L-38.656,-102.035C-42.56,-102.035 -45.222,-101.275 -46.789,-99.714C-47.965,-98.543 -48.536,-96.944 -48.536,-94.826C-48.534,-89.791 -45.165,-87.223 -38.521,-87.193L-38.519,-87.193C-32.539,-87.193 -29.212,-89.252 -28.606,-93.318C-28.383,-91.845 -27.801,-90.653 -26.864,-89.765C-25.224,-88.207 -22.545,-87.547 -18.677,-87.748C-11.948,-88.114 -8.678,-90.735 -8.678,-95.76C-8.678,-97.906 -9.263,-99.503 -10.465,-100.641C-12.075,-102.166 -14.772,-102.802 -18.709,-102.588M1.52,-90.199C-1.93,-89.943 -4.85,-89.729 -7.794,-89.527L-7.794,-102.155C-4.614,-102.374 -1.42,-102.608 1.564,-102.83C4.488,-103.049 6.386,-102.654 7.531,-101.591C8.512,-100.682 8.987,-99.209 8.987,-97.089C8.987,-92.532 6.894,-90.6 1.52,-90.199M1.52,-103.434C-1.553,-103.206 -4.847,-102.963 -8.117,-102.739L-8.399,-102.72L-8.399,-88.878L-8.076,-88.901C-5.02,-89.11 -2.012,-89.33 1.564,-89.595C7.267,-90.021 9.593,-92.191 9.593,-97.089C9.593,-99.387 9.054,-101.004 7.943,-102.035C6.666,-103.221 4.624,-103.665 1.52,-103.434M-35.862,-92.688C-36.401,-92.15 -37.291,-91.877 -38.507,-91.877L-38.52,-91.877C-40.762,-91.885 -41.852,-92.791 -41.851,-94.648C-41.851,-95.491 -41.637,-96.114 -41.194,-96.554C-40.659,-97.087 -39.769,-97.35 -38.521,-97.351C-36.248,-97.348 -35.19,-96.482 -35.19,-94.628C-35.19,-93.786 -35.416,-93.133 -35.862,-92.688M-38.52,-97.957L-38.551,-97.957C-39.94,-97.957 -40.974,-97.629 -41.622,-96.983C-42.176,-96.432 -42.456,-95.646 -42.456,-94.648C-42.457,-93.114 -41.774,-91.283 -38.521,-91.271L-38.507,-91.271C-37.125,-91.271 -36.091,-91.604 -35.435,-92.26C-34.87,-92.823 -34.585,-93.62 -34.585,-94.628C-34.585,-96.833 -35.908,-97.953 -38.52,-97.957M74.996,-90.401C70.363,-91.081 65.487,-91.592 60.495,-91.922L60.495,-104.55C65.451,-104.222 70.289,-103.714 74.885,-103.04L74.885,-100.279C71.929,-100.71 68.868,-101.075 65.781,-101.363L65.45,-101.394L65.45,-99.118L65.725,-99.092C68.665,-98.817 71.583,-98.473 74.403,-98.068L74.403,-95.622C71.602,-96.022 68.702,-96.364 65.781,-96.637L65.45,-96.667L65.45,-94.243L65.725,-94.217C68.874,-93.923 71.992,-93.549 74.996,-93.107L74.996,-90.401ZM75.344,-93.668C72.336,-94.116 69.213,-94.495 66.056,-94.794L66.056,-96.002C68.976,-95.725 71.869,-95.378 74.662,-94.973L75.009,-94.922L75.009,-98.593L74.749,-98.63C71.927,-99.04 69.004,-99.389 66.056,-99.669L66.056,-100.729C69.141,-100.436 72.196,-100.065 75.144,-99.628L75.49,-99.577L75.49,-103.563L75.232,-103.601C70.443,-104.311 65.39,-104.841 60.212,-105.176L59.89,-105.197L59.89,-91.355L60.173,-91.337C65.373,-91 70.447,-90.467 75.254,-89.751L75.602,-89.699L75.602,-93.629L75.344,-93.668ZM36.495,-92.287C34.902,-92.243 33.238,-92.187 31.54,-92.118L31.54,-104.747C33.229,-104.815 34.893,-104.872 36.495,-104.916L36.495,-92.287ZM31.225,-105.34L30.935,-105.328L30.935,-91.487L31.25,-91.5C33.16,-91.579 35.029,-91.643 36.807,-91.689L37.101,-91.697L37.101,-105.538L36.79,-105.53C34.998,-105.482 33.125,-105.418 31.225,-105.34M58.521,-92.043C56.904,-92.135 55.24,-92.21 53.566,-92.267L53.566,-100.609L52.942,-100.628L52.867,-100.423C51.892,-97.742 50.915,-95.055 49.938,-92.362C48.735,-92.385 47.502,-92.399 46.266,-92.405C45.276,-95.142 44.287,-97.873 43.298,-100.598L43.225,-100.799L42.6,-100.794L42.6,-92.398C41.098,-92.385 39.546,-92.36 37.978,-92.325L37.978,-104.954C40.662,-105.016 43.295,-105.043 45.81,-105.036C46.455,-102.911 47.101,-100.784 47.746,-98.655L47.813,-98.442L48.37,-98.435L48.438,-98.653C49.082,-100.765 49.728,-102.875 50.372,-104.983C53.15,-104.925 55.89,-104.821 58.521,-104.672L58.521,-92.043ZM50.155,-105.593L49.927,-105.597L49.86,-105.379C49.271,-103.454 48.682,-101.528 48.093,-99.599C47.503,-101.543 46.914,-103.485 46.324,-105.426L46.259,-105.64L46.035,-105.641C43.355,-105.65 40.54,-105.621 37.667,-105.552L37.372,-105.545L37.372,-91.705L37.682,-91.711C39.458,-91.754 41.215,-91.782 42.904,-91.794L43.205,-91.797L43.205,-99.08C44.06,-96.724 44.914,-94.364 45.769,-92L45.841,-91.801L46.052,-91.8C47.431,-91.795 48.807,-91.779 50.144,-91.752L50.36,-91.749L50.435,-91.952C51.276,-94.275 52.118,-96.594 52.961,-98.908L52.961,-91.681L53.254,-91.671C55.133,-91.61 57.001,-91.525 58.807,-91.421L59.127,-91.402L59.127,-105.243L58.842,-105.26C56.043,-105.422 53.121,-105.534 50.155,-105.593M30.059,-101.323C28.495,-101.254 26.854,-101.173 25.173,-101.083L24.887,-101.067L24.887,-91.799C23.304,-91.712 21.64,-91.614 19.932,-91.507L19.932,-100.774L19.609,-100.754C18.077,-100.657 16.488,-100.552 14.76,-100.433L14.76,-103.792C20.678,-104.201 25.557,-104.485 30.059,-104.684L30.059,-101.323ZM14.436,-104.377L14.154,-104.357L14.154,-99.784L14.478,-99.806C16.209,-99.926 17.799,-100.032 19.326,-100.129L19.326,-90.862L19.647,-90.882C21.571,-91.004 23.441,-91.114 25.206,-91.209L25.492,-91.225L25.492,-100.493C27.174,-100.583 28.815,-100.663 30.374,-100.73L30.664,-100.743L30.664,-105.316L30.348,-105.303C25.683,-105.101 20.627,-104.806 14.436,-104.377M-18.709,-92.431C-19.935,-92.366 -20.825,-92.592 -21.361,-93.102C-21.801,-93.519 -22.023,-94.154 -22.023,-94.989C-22.022,-96.859 -20.959,-97.786 -18.677,-97.906C-18.536,-97.914 -18.4,-97.917 -18.269,-97.917C-17.245,-97.917 -16.489,-97.691 -16.017,-97.243C-15.577,-96.826 -15.363,-96.214 -15.363,-95.373C-15.362,-93.513 -16.457,-92.551 -18.709,-92.431M-18.709,-98.511C-21.31,-98.374 -22.628,-97.189 -22.629,-94.99C-22.629,-93.981 -22.344,-93.198 -21.778,-92.662C-21.186,-92.099 -20.285,-91.814 -19.099,-91.815C-18.962,-91.815 -18.821,-91.818 -18.678,-91.826L-18.677,-91.826C-16.889,-91.921 -14.757,-92.614 -14.758,-95.373C-14.758,-96.375 -15.041,-97.152 -15.6,-97.683C-16.259,-98.307 -17.305,-98.585 -18.709,-98.511M-48.947,10.927C-48.947,10.927 -64.963,10.157 -58.327,10.788C-55.936,11.008 -52.655,10.726 -52.655,10.726C-51.419,10.804 -50.184,10.872 -48.947,10.927Z" style="fill:currentColor;fill-rule:nonzero;"/>
            </g>
        </g>
    </g>
</svg>
