<?xml version="1.0" encoding="UTF-8" standalone="no"?>
<!DOCTYPE svg PUBLIC "-//W3C//DTD SVG 1.1//EN" "http://www.w3.org/Graphics/SVG/1.1/DTD/svg11.dtd">
<svg width="100%" height="100%" viewBox="0 0 144 30" version="1.1" xmlns="http://www.w3.org/2000/svg" xmlns:xlink="http://www.w3.org/1999/xlink" xml:space="preserve" xmlns:serif="http://www.serif.com/" style="fill-rule:evenodd;clip-rule:evenodd;stroke-linejoin:round;stroke-miterlimit:2;">
    <g transform="matrix(1,0,0,1,134.413,7.04408)">
        <path d="M0,3.823L0,1.999C2.997,2.279 5.994,2.632 8.991,3.066L8.991,-0.005C5.994,-0.441 2.997,-0.792 0,-1.073L0,-2.747C3.158,-2.452 6.316,-2.077 9.475,-1.61L9.475,-4.997C4.455,-5.741 -0.564,-6.251 -5.584,-6.575L-5.584,6.715C-0.527,7.042 4.529,7.557 9.587,8.31L9.587,4.978C6.392,4.503 3.195,4.122 0,3.823M-17.68,-0.417C-17.717,-0.418 -17.754,-0.418 -17.791,-0.419C-18.461,-2.629 -19.132,-4.837 -19.802,-7.042C-22.6,-7.053 -25.398,-7.02 -28.196,-6.952L-28.196,6.338C-26.446,6.296 -24.697,6.267 -22.947,6.255L-22.947,-2.178C-22.91,-2.178 -22.873,-2.178 -22.836,-2.179C-21.817,0.625 -20.801,3.434 -19.782,6.249C-18.411,6.254 -17.04,6.269 -15.669,6.297C-14.664,3.524 -13.659,0.759 -12.653,-2.002C-12.616,-2 -12.579,-1.999 -12.542,-1.998L-12.542,6.379C-10.681,6.439 -8.818,6.522 -6.957,6.631L-6.957,-6.66C-9.861,-6.828 -12.765,-6.937 -15.669,-6.994C-16.339,-4.804 -17.009,-2.613 -17.68,-0.417M-34.661,6.551C-32.8,6.474 -30.937,6.41 -29.077,6.36L-29.077,-6.931C-30.938,-6.881 -32.8,-6.817 -34.661,-6.74L-34.661,6.551ZM-51.513,-1.79C-49.781,-1.91 -48.05,-2.026 -46.318,-2.135L-46.318,7.172C-44.457,7.053 -42.596,6.943 -40.734,6.843L-40.734,-2.465C-39.003,-2.559 -37.272,-2.644 -35.541,-2.719L-35.541,-6.702C-40.865,-6.472 -46.188,-6.143 -51.513,-5.774L-51.513,-1.79ZM-66.009,4.668C-66.864,4.731 -67.721,4.795 -68.577,4.856L-68.577,-0.616C-67.721,-0.678 -66.864,-0.741 -66.009,-0.805C-63.793,-0.968 -62.807,-0.298 -62.807,1.694C-62.806,3.685 -63.793,4.504 -66.009,4.668M-64.481,-4.826C-67.708,-4.587 -70.935,-4.35 -74.161,-4.129L-74.161,9.162C-70.935,8.94 -67.709,8.704 -64.481,8.464C-59.102,8.063 -56.701,6.1 -56.701,1.242C-56.701,-3.616 -59.103,-5.228 -64.481,-4.826M-84.802,6.223C-87.333,6.356 -88.451,5.303 -88.451,3.35C-88.45,1.394 -87.335,0.251 -84.802,0.118C-82.271,-0.017 -81.154,1.01 -81.154,2.966C-81.153,4.919 -82.271,6.089 -84.802,6.223M-84.802,-3.977C-91.41,-3.633 -94.556,-1.284 -94.557,3.581C-94.557,8.432 -91.41,10.663 -84.802,10.318C-78.194,9.959 -75.049,7.427 -75.049,2.577C-75.05,-2.289 -78.192,-4.337 -84.802,-3.977M-104.713,6.78C-107.245,6.771 -108.362,5.645 -108.362,3.693C-108.361,1.736 -107.244,0.666 -104.713,0.675C-102.183,0.678 -101.065,1.757 -101.065,3.714C-101.064,5.666 -102.183,6.784 -104.713,6.78M-104.713,-3.42C-111.321,-3.45 -114.468,-1.358 -114.467,3.514C-114.466,8.359 -111.321,10.845 -104.713,10.875C-98.105,10.876 -94.96,8.437 -94.96,3.593C-94.959,-1.28 -98.105,-3.42 -104.713,-3.42M-124.083,5.085C-123.121,5.171 -122.159,5.249 -121.197,5.321C-121.198,5.541 -122.164,6.412 -124.566,6.195C-127.189,5.949 -128.309,4.711 -128.309,2.462C-128.308,0.504 -127.191,-0.455 -124.679,-0.219C-122.128,0.01 -121.774,0.936 -121.663,1.209C-119.522,1.374 -117.382,1.503 -115.241,1.6C-115.39,-1.593 -118.051,-3.729 -124.715,-4.318C-131.268,-4.945 -134.413,-3.214 -134.413,1.646C-134.414,6.502 -131.268,9.354 -124.604,9.989C-122.202,10.21 -120.249,9.786 -118.907,8.587L-118.907,9.927C-117.667,10.005 -116.426,10.072 -115.185,10.129L-115.185,2.664C-118.15,2.529 -121.116,2.334 -124.083,2.069L-124.083,5.085Z" style="fill:currentColor;fill-rule:nonzero;"/>
    </g>
    <g transform="matrix(1,0,0,1,20.2743,28.963)">
        <path d="M0,-2.468C-0.659,-2.468 -1.211,-2.077 -1.211,-1.235C-1.211,-0.392 -0.659,0 0,0C0.695,0 1.077,-0.346 1.101,-0.852L1.759,-0.852C1.735,-0.028 1.045,0.493 0,0.493C-1,0.493 -1.833,-0.073 -1.833,-1.235C-1.833,-2.395 -1,-2.961 0,-2.961C1.045,-2.961 1.703,-2.441 1.749,-1.686L1.096,-1.686C1.059,-2.123 0.695,-2.468 0,-2.468" style="fill:currentColor;fill-rule:nonzero;"/>
    </g>
    <g transform="matrix(1,0,0,1,36.8026,28.4005)">
        <path d="M0,-1.344C0,-1.671 -0.171,-1.814 -0.544,-1.814L-2.128,-1.814L-2.128,-0.874L-0.544,-0.874C-0.171,-0.874 0,-1.017 0,-1.344M0.695,0.972L0.036,0.972L-0.778,-0.372L-2.128,-0.372L-2.128,0.972L-2.699,0.972L-2.699,-2.316L-0.502,-2.316C0.276,-2.316 0.631,-2.031 0.631,-1.344C0.631,-0.727 0.253,-0.501 -0.152,-0.428L-0.152,-0.409L0.695,0.972Z" style="fill:currentColor;fill-rule:nonzero;"/>
    </g>
    <g transform="matrix(1,0,0,1,50.0839,28.0419)">
        <path d="M0,-0.626L2.243,-0.626L2.243,-0.147L0,-0.147L0,0.838L2.372,0.838L2.372,1.331L-0.57,1.331L-0.57,-1.957L2.313,-1.957L2.313,-1.464L0,-1.464L0,-0.626Z" style="fill:currentColor;fill-rule:nonzero;"/>
    </g>
    <g transform="matrix(1,0,0,1,66.956,27.3104)">
        <path d="M0,0.837L-0.716,-0.678L-0.734,-0.678L-1.45,0.837L0,0.837ZM0.228,1.321L-1.678,1.321L-2.028,2.063L-2.641,2.063L-1.048,-1.226L-0.385,-1.226L1.209,2.063L0.578,2.063L0.228,1.321Z" style="fill:currentColor;fill-rule:nonzero;"/>
    </g>
    <g transform="matrix(1,0,0,1,82.6386,28.8708)">
        <path d="M0,-2.284L-1.387,-2.284L-1.387,0.502L-1.957,0.502L-1.957,-2.284L-3.344,-2.284L-3.344,-2.786L0,-2.786L0,-2.284Z" style="fill:currentColor;fill-rule:nonzero;"/>
    </g>
    <g transform="matrix(1,0,0,1,-528.399,-138.975)">
        <rect x="622.984" y="165.06" width="0.571" height="3.288" style="fill:currentColor;"/>
    </g>
    <g transform="matrix(1,0,0,1,108.882,26.7581)">
        <path d="M0,1.942L0.019,1.942L1.201,-0.673L1.832,-0.673L0.285,2.615L-0.286,2.615L-1.833,-0.673L-1.184,-0.673L0,1.942Z" style="fill:currentColor;fill-rule:nonzero;"/>
    </g>
    <g transform="matrix(1,0,0,1,123.186,28.0419)">
        <path d="M0,-0.626L2.242,-0.626L2.242,-0.147L0,-0.147L0,0.838L2.371,0.838L2.371,1.331L-0.571,1.331L-0.571,-1.957L2.312,-1.957L2.312,-1.464L0,-1.464L0,-0.626Z" style="fill:currentColor;fill-rule:nonzero;"/>
    </g>
</svg>
