<?xml version="1.0" encoding="UTF-8" standalone="no"?>
<!DOCTYPE svg PUBLIC "-//W3C//DTD SVG 1.1//EN" "http://www.w3.org/Graphics/SVG/1.1/DTD/svg11.dtd">
<svg width="100%" height="100%" viewBox="0 0 216 27" version="1.1" xmlns="http://www.w3.org/2000/svg" xmlns:xlink="http://www.w3.org/1999/xlink" xml:space="preserve" xmlns:serif="http://www.serif.com/" style="fill-rule:evenodd;clip-rule:evenodd;stroke-linejoin:round;stroke-miterlimit:2;">
    <g transform="matrix(1,0,0,1,201.62,10.566)">
        <g id="Layer-1" serif:id="Layer 1">
            <path d="M0,5.734L0,2.998C4.495,3.418 8.991,3.946 13.486,4.599L13.486,-0.008C8.991,-0.661 4.495,-1.189 0,-1.609L0,-4.122C4.738,-3.679 9.475,-3.117 14.213,-2.414L14.213,-7.495C6.683,-8.612 -0.847,-9.376 -8.376,-9.864L-8.376,10.072C-0.791,10.563 6.795,11.336 14.38,12.464L14.38,7.467C9.587,6.754 4.793,6.182 0,5.734M-26.519,-0.626C-26.574,-0.627 -26.631,-0.628 -26.687,-0.628C-27.692,-3.944 -28.697,-7.255 -29.702,-10.563C-33.899,-10.579 -38.098,-10.531 -42.295,-10.429L-42.295,9.506C-39.67,9.443 -37.046,9.401 -34.421,9.381L-34.421,-3.267C-34.365,-3.267 -34.31,-3.268 -34.253,-3.268C-32.727,0.937 -31.2,5.151 -29.674,9.373C-27.617,9.38 -25.56,9.404 -23.503,9.445C-21.995,5.286 -20.488,1.136 -18.98,-3.003C-18.925,-3.001 -18.869,-2.999 -18.812,-2.997L-18.812,9.567C-16.021,9.659 -13.229,9.784 -10.436,9.946L-10.436,-9.991C-14.792,-10.244 -19.147,-10.406 -23.503,-10.492C-24.509,-7.207 -25.514,-3.918 -26.519,-0.626M-51.991,9.826C-49.199,9.711 -46.407,9.614 -43.615,9.54L-43.615,-10.396C-46.407,-10.322 -49.199,-10.225 -51.991,-10.11L-51.991,9.826ZM-77.269,-2.685C-74.672,-2.866 -72.075,-3.039 -69.479,-3.204L-69.479,10.757C-66.686,10.581 -63.894,10.415 -61.102,10.263L-61.102,-3.698C-58.505,-3.838 -55.908,-3.966 -53.312,-4.079L-53.312,-10.054C-61.298,-9.708 -69.283,-9.214 -77.269,-8.661L-77.269,-2.685ZM-99.013,7.002C-100.297,7.096 -101.581,7.191 -102.865,7.285L-102.865,-0.924C-101.581,-1.018 -100.297,-1.113 -99.013,-1.207C-95.69,-1.453 -94.209,-0.447 -94.21,2.541C-94.209,5.528 -95.689,6.755 -99.013,7.002M-96.723,-7.241C-101.563,-6.881 -106.402,-6.526 -111.242,-6.194L-111.242,13.742C-106.402,13.411 -101.563,13.055 -96.723,12.696C-88.652,12.093 -85.052,9.15 -85.052,1.863C-85.051,-5.425 -88.653,-7.842 -96.723,-7.241M-127.203,9.335C-131,9.534 -132.678,7.955 -132.676,5.025C-132.675,2.091 -131.002,0.376 -127.203,0.176C-123.406,-0.026 -121.73,1.515 -121.731,4.448C-121.73,7.379 -123.406,9.132 -127.203,9.335M-127.203,-5.966C-137.115,-5.451 -141.834,-1.927 -141.834,5.372C-141.834,12.648 -137.115,15.994 -127.203,15.477C-117.291,14.938 -112.572,11.141 -112.572,3.865C-112.574,-3.434 -117.289,-6.505 -127.203,-5.966M-157.07,10.17C-160.867,10.156 -162.543,8.467 -162.543,5.539C-162.542,2.604 -160.866,0.998 -157.07,1.011C-153.273,1.018 -151.598,2.634 -151.598,5.57C-151.597,8.499 -153.273,10.176 -157.07,10.17M-157.07,-5.131C-166.981,-5.176 -171.702,-2.037 -171.7,5.272C-171.698,12.539 -166.982,16.268 -157.07,16.312C-147.158,16.313 -142.44,12.656 -142.439,5.389C-142.438,-1.919 -147.158,-5.13 -157.07,-5.131M-186.124,7.627C-184.682,7.755 -183.239,7.874 -181.796,7.981C-181.797,8.311 -183.247,9.618 -186.85,9.292C-190.783,8.923 -192.463,7.065 -192.462,3.692C-192.461,0.755 -190.787,-0.683 -187.018,-0.328C-183.192,0.016 -182.661,1.403 -182.494,1.813C-179.283,2.06 -176.072,2.254 -172.861,2.401C-173.084,-2.39 -177.076,-5.593 -187.072,-6.477C-196.901,-7.416 -201.619,-4.821 -201.62,2.469C-201.621,9.753 -196.901,14.031 -186.905,14.983C-183.303,15.314 -180.373,14.679 -178.361,12.88L-178.361,14.89C-176.5,15.007 -174.639,15.108 -172.776,15.193L-172.776,3.996C-177.226,3.794 -181.675,3.501 -186.124,3.103L-186.124,7.627Z" style="fill:currentColor;fill-rule:nonzero;"/>
        </g>
    </g>
</svg>
