<?xml version="1.0" encoding="UTF-8" standalone="no"?>
<!DOCTYPE svg PUBLIC "-//W3C//DTD SVG 1.1//EN" "http://www.w3.org/Graphics/SVG/1.1/DTD/svg11.dtd">
<svg width="100%" height="100%" viewBox="0 0 216 51" version="1.1" xmlns="http://www.w3.org/2000/svg" xmlns:xlink="http://www.w3.org/1999/xlink" xml:space="preserve" xmlns:serif="http://www.serif.com/" style="fill-rule:evenodd;clip-rule:evenodd;stroke-linejoin:round;stroke-miterlimit:2;">
    <g id="Layer-1" serif:id="Layer 1" transform="matrix(1,0,0,1,-71.9999,-154.517)">
        <g transform="matrix(1,0,0,1,247.101,195.53)">
            <path d="M0,-6.986C-0.055,-6.987 -0.111,-6.988 -0.167,-6.988C-1.173,-10.303 -2.178,-13.615 -3.184,-16.923C-7.381,-16.939 -11.578,-16.89 -15.775,-16.789L-15.775,3.147C-13.15,3.084 -10.526,3.041 -7.901,3.022L-7.901,-9.627C-7.846,-9.627 -7.79,-9.628 -7.733,-9.628C-6.207,-5.423 -4.681,-1.209 -3.154,3.013C-1.098,3.021 0.959,3.044 3.016,3.085C4.523,-1.074 6.031,-5.223 7.539,-9.363L7.706,-9.357L7.706,3.207C10.498,3.299 13.291,3.424 16.083,3.586L16.083,-16.35C11.728,-16.603 7.372,-16.765 3.016,-16.851C2.011,-13.567 1.006,-10.278 0,-6.986M26.52,-3.362C31.015,-2.942 35.51,-2.413 40.006,-1.76L40.006,-6.368C35.51,-7.02 31.015,-7.548 26.52,-7.968L26.52,-10.481C31.257,-10.039 35.994,-9.476 40.732,-8.774C40.731,-10.467 40.731,-12.162 40.732,-13.855C33.202,-14.971 25.673,-15.736 18.143,-16.223L18.143,3.712C25.729,4.203 33.313,4.976 40.899,6.106L40.899,1.108C36.106,0.394 31.313,-0.177 26.52,-0.626L26.52,-3.362ZM-100.684,2.975C-104.48,3.174 -106.158,1.595 -106.157,-1.335C-106.155,-4.268 -104.482,-5.984 -100.684,-6.183C-96.887,-6.385 -95.212,-4.844 -95.212,-1.912C-95.211,1.019 -96.888,2.773 -100.684,2.975M-100.684,-12.326C-110.597,-11.81 -115.314,-8.287 -115.315,-0.988C-115.315,6.288 -110.596,9.634 -100.684,9.118C-90.771,8.578 -86.054,4.782 -86.054,-2.495C-86.056,-9.794 -90.77,-12.865 -100.684,-12.326M-25.472,3.466C-22.68,3.351 -19.888,3.254 -17.096,3.18L-17.096,-16.756C-19.888,-16.681 -22.68,-16.585 -25.472,-16.47L-25.472,3.466ZM-72.493,0.642C-73.777,0.737 -75.062,0.831 -76.346,0.925L-76.346,-7.284C-75.062,-7.378 -73.777,-7.472 -72.493,-7.567C-69.171,-7.812 -67.689,-6.806 -67.69,-3.819C-67.689,-0.832 -69.17,0.396 -72.493,0.642M-70.203,-13.6C-75.043,-13.24 -79.883,-12.885 -84.723,-12.553L-84.723,7.382C-79.883,7.051 -75.043,6.696 -70.203,6.336C-62.133,5.735 -58.532,2.79 -58.532,-4.497C-58.532,-11.785 -62.134,-14.202 -70.203,-13.6M-50.749,-9.045C-48.152,-9.225 -45.556,-9.399 -42.959,-9.563L-42.959,4.398C-40.167,4.221 -37.374,4.055 -34.582,3.904L-34.582,-10.057C-31.985,-10.198 -29.389,-10.326 -26.792,-10.438L-26.792,-16.414C-34.778,-16.068 -42.764,-15.574 -50.749,-15.02L-50.749,-9.045ZM-159.604,1.267C-158.162,1.396 -156.72,1.514 -155.277,1.621C-155.278,1.952 -156.728,3.258 -160.33,2.932C-164.265,2.564 -165.944,0.705 -165.943,-2.668C-165.942,-5.604 -164.268,-7.043 -160.498,-6.688C-156.673,-6.343 -156.142,-4.957 -155.975,-4.547C-152.764,-4.299 -149.553,-4.106 -146.342,-3.959C-146.565,-8.75 -150.557,-11.953 -160.554,-12.837C-170.383,-13.776 -175.101,-11.18 -175.101,-3.89C-175.102,3.393 -170.382,7.671 -160.387,8.623C-156.784,8.954 -153.854,8.32 -151.842,6.52L-151.842,8.531C-149.98,8.648 -148.119,8.748 -146.258,8.833L-146.258,-2.364C-150.707,-2.566 -155.155,-2.859 -159.604,-3.257L-159.604,1.267ZM-130.551,3.81C-134.348,3.796 -136.023,2.108 -136.023,-0.821C-136.023,-3.756 -134.347,-5.362 -130.551,-5.348C-126.754,-5.341 -125.078,-3.724 -125.078,-0.79C-125.077,2.139 -126.754,3.817 -130.551,3.81M-130.551,-11.491C-140.462,-11.536 -145.183,-8.396 -145.182,-1.088C-145.18,6.179 -140.463,9.909 -130.551,9.952C-120.639,9.953 -115.921,6.296 -115.92,-0.97C-115.919,-8.279 -120.639,-11.49 -130.551,-11.491" style="fill:currentColor;fill-rule:nonzero;"/>
        </g>
        <g transform="matrix(1,0,0,1,123.96,167.234)">
            <path d="M0,-12.253L0,0L-5.149,0L-5.149,-4.41L-10.812,-4.41L-10.812,0L-15.96,0L-15.96,-12.253L-10.812,-12.253L-10.812,-7.98L-5.149,-7.98L-5.149,-12.253L0,-12.253Z" style="fill:currentColor;fill-rule:nonzero;"/>
        </g>
        <g transform="matrix(1,0,0,1,130.307,162.566)">
            <path d="M0,-2.918L8.289,-2.918L8.289,-0.086L0,-0.086L0,1.596L8.838,1.596L8.838,4.667L-5.147,4.667L-5.147,-7.585L8.735,-7.585L8.735,-4.462L0,-4.462L0,-2.918Z" style="fill:currentColor;fill-rule:nonzero;"/>
        </g>
        <g transform="matrix(1,0,0,1,150.47,162.481)">
            <path d="M0,-2.747C0,-3.468 -0.326,-3.81 -1.305,-3.81L-5.148,-3.81L-5.148,-1.717L-1.305,-1.717C-0.343,-1.717 0,-2.043 0,-2.747M6.006,4.753L0.326,4.753L-1.665,1.286L-5.148,1.286L-5.148,4.753L-10.297,4.753L-10.297,-7.5L0.274,-7.5C4.41,-7.5 5.731,-5.956 5.731,-3.279C5.731,-1.271 4.805,-0.327 3.227,0.085L3.227,0.256L6.006,4.753Z" style="fill:currentColor;fill-rule:nonzero;"/>
        </g>
        <g transform="matrix(1,0,0,1,162.223,162.566)">
            <path d="M0,-2.918L8.289,-2.918L8.289,-0.086L0,-0.086L0,1.596L8.838,1.596L8.838,4.667L-5.148,4.667L-5.148,-7.585L8.735,-7.585L8.735,-4.462L0,-4.462L0,-2.918Z" style="fill:currentColor;fill-rule:nonzero;"/>
        </g>
        <g transform="matrix(1,0,0,1,183.174,163.768)">
            <path d="M0,-5.321L0,-3.399L8.289,-3.399L8.289,-0.104L0,-0.104L0,3.466L-5.148,3.466L-5.148,-8.787L8.77,-8.787L8.77,-5.321L0,-5.321Z" style="fill:currentColor;fill-rule:nonzero;"/>
        </g>
        <g transform="matrix(1,0,0,1,204.829,161.107)">
            <path d="M0,0C0,-1.802 -1.029,-2.814 -3.363,-2.814C-5.697,-2.814 -6.727,-1.802 -6.727,0C-6.727,1.802 -5.697,2.814 -3.363,2.814C-1.029,2.814 0,1.802 0,0M5.629,0C5.629,4.479 2.729,6.59 -3.363,6.59C-9.456,6.59 -12.355,4.479 -12.355,0C-12.355,-4.479 -9.456,-6.59 -3.363,-6.59C2.729,-6.59 5.629,-4.479 5.629,0" style="fill:currentColor;fill-rule:nonzero;"/>
        </g>
        <g transform="matrix(1,0,0,1,221.731,162.481)">
            <path d="M0,-2.747C0,-3.468 -0.326,-3.81 -1.304,-3.81L-5.148,-3.81L-5.148,-1.717L-1.304,-1.717C-0.343,-1.717 0,-2.043 0,-2.747M6.007,4.753L0.326,4.753L-1.664,1.286L-5.148,1.286L-5.148,4.753L-10.296,4.753L-10.296,-7.5L0.274,-7.5C4.41,-7.5 5.732,-5.956 5.732,-3.279C5.732,-1.271 4.806,-0.327 3.227,0.085L3.227,0.256L6.007,4.753Z" style="fill:currentColor;fill-rule:nonzero;"/>
        </g>
        <g transform="matrix(1,0,0,1,244.359,159.716)">
            <path d="M0,2.781L-1.592,-0.754L-1.694,-0.754L-3.286,2.781L0,2.781ZM1.437,5.973L-4.723,5.973L-5.418,7.517L-10.927,7.517L-5.023,-4.736L1.738,-4.736L7.642,7.517L2.133,7.517L1.437,5.973Z" style="fill:currentColor;fill-rule:nonzero;"/>
        </g>
    </g>
</svg>
