<?xml version="1.0" encoding="UTF-8" standalone="no"?>
<!DOCTYPE svg PUBLIC "-//W3C//DTD SVG 1.1//EN" "http://www.w3.org/Graphics/SVG/1.1/DTD/svg11.dtd">
<svg width="100%" height="100%" viewBox="0 0 144 146" version="1.1" xmlns="http://www.w3.org/2000/svg" xmlns:xlink="http://www.w3.org/1999/xlink" xml:space="preserve" xmlns:serif="http://www.serif.com/" style="fill-rule:evenodd;clip-rule:evenodd;stroke-linejoin:round;stroke-miterlimit:2;">
    <g transform="matrix(1,0,0,1,72.0012,8.83)">
        <g id="Layer-1" serif:id="Layer 1">
            <path d="M0,127.422C-26.422,127.422 -49.542,111.138 -59.074,87.626C-55.245,89.627 -50.92,90.73 -46.404,90.73C-31.341,90.73 -19.085,78.474 -19.085,63.41L-19.049,63.41C-19.049,54.691 -12.793,47.382 -4.415,45.441L-4.415,84.239C-7.695,82.664 -9.972,79.319 -9.972,75.443L-18.802,75.443C-18.802,85.694 -10.462,94.035 -0.21,94.035C10.043,94.035 18.383,85.694 18.383,75.443L9.553,75.443C9.553,79.153 7.471,82.386 4.416,84.036L4.416,45.441C12.794,47.381 19.051,54.691 19.051,63.41L19.079,63.41C19.079,78.474 31.334,90.73 46.398,90.73C50.917,90.73 55.246,89.625 59.077,87.621C49.545,111.138 26.426,127.422 0,127.422M71.032,69.622C70.313,68.696 69.214,68.089 68.051,67.944C66.079,67.682 64.206,68.786 63.436,70.606C60.536,77.466 53.847,81.899 46.398,81.899C36.204,81.899 27.91,73.605 27.91,63.41C27.91,53.214 36.204,44.92 46.398,44.92C53.838,44.92 60.525,49.347 63.429,56.197C64.21,58.043 66.149,59.131 68.13,58.843C70.534,58.5 72.208,56.283 71.882,53.88C67.034,18.128 36.13,-8.83 0,-8.83C-36.147,-8.83 -67.056,18.138 -71.894,53.903C-72.064,55.166 -71.673,56.441 -70.835,57.401C-69.997,58.36 -68.777,58.91 -67.502,58.91C-65.729,58.91 -64.127,57.85 -63.436,56.216C-60.533,49.354 -53.845,44.92 -46.397,44.92L-46.397,36.089C-50.791,36.089 -55.005,37.132 -58.757,39.033C-49.014,15.952 -26.058,0 0,0C26.046,0 49,15.952 58.745,39.028C54.996,37.131 50.786,36.089 46.398,36.089C36.766,36.089 28.301,41.112 23.435,48.664C18.469,41.112 9.831,36.089 0,36.089C-13.835,36.089 -25.316,46.027 -27.481,58.995L-45.504,58.995L-45.504,67.825L-28.471,67.825C-30.459,75.891 -37.733,81.899 -46.404,81.899C-53.852,81.899 -60.538,77.466 -63.441,70.608C-64.217,68.777 -66.212,67.697 -68.168,67.961C-70.574,68.282 -72.27,70.484 -71.966,72.893C-67.401,109.015 -36.461,136.252 0,136.252C36.463,136.252 67.403,109.013 71.966,72.889C72.113,71.727 71.75,70.547 71.032,69.622M0,108.316C-11.881,108.316 -23.173,103.819 -31.796,95.654L-37.867,102.068C-27.597,111.791 -14.149,117.147 0,117.147C14.364,117.147 27.959,111.65 38.285,101.671L32.149,95.32C23.478,103.7 12.061,108.316 0,108.316" style="fill:currentColor;fill-rule:nonzero;"/>
        </g>
    </g>
</svg>
