<?xml version="1.0" encoding="UTF-8" standalone="no"?>
<!DOCTYPE svg PUBLIC "-//W3C//DTD SVG 1.1//EN" "http://www.w3.org/Graphics/SVG/1.1/DTD/svg11.dtd">
<svg width="100%" height="100%" viewBox="0 0 144 144" version="1.1" xmlns="http://www.w3.org/2000/svg" xmlns:xlink="http://www.w3.org/1999/xlink" xml:space="preserve" xmlns:serif="http://www.serif.com/" style="fill-rule:evenodd;clip-rule:evenodd;stroke-linejoin:round;stroke-miterlimit:2;">
    <g transform="matrix(1,0,0,1,62.458,72.15)">
        <g id="Layer-1" serif:id="Layer 1">
            <path d="M0,-0.3L0.018,-0.3C0.018,-4.659 3.146,-8.314 7.335,-9.284L7.335,10.115C5.695,9.328 4.557,7.655 4.557,5.717L0.141,5.717C0.141,10.843 4.312,15.013 9.438,15.013C14.564,15.013 18.734,10.843 18.734,5.717L14.319,5.717C14.319,7.572 13.278,9.188 11.75,10.013L11.75,-9.284C15.939,-8.314 19.068,-4.659 19.068,-0.3L19.082,-0.3C19.082,7.232 25.21,13.36 32.741,13.36C35.001,13.36 37.165,12.808 39.081,11.806C34.315,23.564 22.756,31.707 9.542,31.707C-3.668,31.707 -15.229,23.564 -19.995,11.808C-18.08,12.809 -15.917,13.36 -13.66,13.36C-6.128,13.36 0,7.232 0,-0.3M-13.66,8.945C-17.383,8.945 -20.727,6.728 -22.178,3.299C-22.566,2.384 -23.564,1.845 -24.542,1.976C-25.745,2.137 -26.592,3.238 -26.44,4.441C-24.158,22.503 -8.688,36.122 9.542,36.122C27.774,36.122 43.244,22.502 45.525,4.44C45.599,3.858 45.418,3.268 45.059,2.806C44.699,2.344 44.149,2.04 43.568,1.968C42.582,1.837 41.646,2.388 41.261,3.298C39.811,6.728 36.466,8.945 32.741,8.945C27.645,8.945 23.497,4.798 23.497,-0.3C23.497,-5.398 27.645,-9.545 32.741,-9.545C36.462,-9.545 39.805,-7.331 41.257,-3.905C41.647,-2.984 42.617,-2.439 43.608,-2.583C44.81,-2.755 45.646,-3.863 45.483,-5.065C43.06,-22.941 27.608,-36.42 9.542,-36.42C-8.531,-36.42 -23.985,-22.936 -26.404,-5.053C-26.49,-4.422 -26.294,-3.784 -25.875,-3.304C-25.456,-2.824 -24.846,-2.549 -24.209,-2.549C-23.322,-2.549 -22.521,-3.08 -22.175,-3.897C-20.724,-7.327 -17.38,-9.545 -13.656,-9.545L-13.656,-13.96C-15.853,-13.96 -17.96,-13.439 -19.836,-12.488C-14.964,-24.029 -3.487,-32.005 9.542,-32.005C22.565,-32.005 34.043,-24.029 38.915,-12.49C37.04,-13.44 34.936,-13.96 32.741,-13.96C27.926,-13.96 23.693,-11.448 21.26,-7.673C18.777,-11.448 14.458,-13.96 9.542,-13.96C2.625,-13.96 -3.116,-8.991 -4.198,-2.507L-13.209,-2.507L-13.209,1.908L-4.693,1.908C-5.687,5.941 -9.324,8.945 -13.66,8.945M28.685,18.831L25.617,15.655C21.282,19.846 15.573,22.153 9.542,22.153C3.602,22.153 -2.044,19.905 -6.355,15.823L-9.391,19.029C-4.256,23.891 2.468,26.568 9.542,26.568C16.725,26.568 23.522,23.82 28.685,18.831M-33.212,12.24L-35.638,13.326L-32.514,20.304L-33.842,20.897L-36.772,14.353L-39.007,15.354L-36.078,21.899L-37.297,22.444L-40.385,15.548L-42.85,16.652L-37.944,27.613L-28.269,23.282L-33.212,12.24ZM-34.618,32.941L-31.034,36.555L-24.936,33.874L-24.873,33.937L-27.627,39.991L-24.043,43.606L-19.956,32.679L-23.655,28.947L-34.618,32.941ZM-13.999,37.149L-19.195,46.381L-15.316,48.564L-10.12,39.332L-13.999,37.149ZM0.701,43.061L-3.61,41.951L-5.461,49.135L-9.471,48.102L-10.263,51.179L2.067,54.354L2.859,51.279L-1.15,50.247L0.701,43.061ZM13.972,50.846L13.884,50.854L12.254,47.924L15.086,47.683L13.972,50.846ZM16.092,44.828L10.782,45.277L10.07,43.997L5.323,44.398L11.305,54.528L17.131,54.036L21.326,43.045L16.579,43.446L16.092,44.828ZM23.551,42.059L24.728,44.443L31.584,41.057L32.229,42.362L25.798,45.537L26.883,47.733L33.313,44.558L33.905,45.758L27.129,49.103L28.325,51.526L39.096,46.208L34.401,36.701L23.551,42.059ZM48.766,33.231L46.499,35.662C45.923,36.28 45.513,36.284 45.057,35.859C44.612,35.444 44.608,35.034 45.175,34.427L47.442,31.995L48.766,33.231ZM43.351,28.18L45.542,30.224L43.488,32.428L40.122,31.642L36.771,35.234L41.255,36.128L41.364,36.229C40.693,37.471 40.743,38.613 42.014,39.798C43.706,41.376 45.462,41.451 47.901,38.836L54.136,32.15L46.387,24.924L43.351,28.18ZM58.443,10.104C54.819,8.735 52.225,10.438 50.411,15.242C48.597,20.047 49.326,22.861 52.342,24.079L54.155,19.274C53.312,18.861 52.8,18.159 53.466,16.395C54.132,14.633 55.265,14.108 56.724,14.659C58.181,15.209 58.686,16.352 58.021,18.115C57.354,19.879 56.512,20.053 55.847,19.882L54.032,24.685C56.864,25.676 59.262,24.073 61.075,19.268C62.89,14.464 62.067,11.472 58.443,10.104M53.997,-2.163L56.611,-2.642L55.233,-10.16L56.664,-10.423L57.956,-3.371L60.364,-3.814L59.072,-10.864L60.387,-11.105L61.748,-3.675L64.404,-4.161L62.241,-15.971L51.817,-14.062L53.997,-2.163ZM44.029,-27.995L49.645,-31.695L49.693,-31.62L45.417,-25.887L47.222,-23.148L54.124,-24.815L54.173,-24.74L48.595,-21.066L51.044,-17.346L59.896,-23.177L56.073,-28.979L50.791,-27.419L50.742,-27.492L54.261,-31.732L50.577,-37.322L41.725,-31.491L44.029,-27.995ZM38.672,-33.362L45.254,-41.66L41.767,-44.427L35.185,-36.127L38.672,-33.362ZM25.087,-41.524L29.169,-39.741L32.139,-46.546L35.936,-44.889L37.206,-47.801L25.531,-52.897L24.26,-49.985L28.057,-48.328L25.087,-41.524ZM2.877,-51.341C4.631,-51.556 5.484,-51.063 5.678,-49.487C5.87,-47.909 5.163,-47.224 3.409,-47.009L1.376,-46.76L0.845,-51.092L2.877,-51.341ZM4.997,-44.063C9.255,-44.585 10.981,-46.234 10.511,-50.078C10.039,-53.924 7.965,-55.106 3.707,-54.584L-3.955,-53.644L-2.666,-43.123L4.997,-44.063ZM-16.143,-45.224C-14.391,-46.224 -13.183,-45.904 -12.412,-44.552C-11.64,-43.198 -11.978,-41.997 -13.73,-40.997C-15.483,-39.996 -16.689,-40.316 -17.462,-41.669C-18.235,-43.022 -17.895,-44.224 -16.143,-45.224M-12.113,-38.162C-7.538,-40.773 -6.265,-43.601 -8.184,-46.964C-10.104,-50.327 -13.186,-50.669 -17.761,-48.058C-22.335,-45.447 -23.608,-42.619 -21.689,-39.256C-19.769,-35.893 -16.687,-35.552 -12.113,-38.162M-31.863,-31.378C-30.648,-32.99 -29.412,-33.174 -28.167,-32.237C-26.922,-31.298 -26.758,-30.061 -27.974,-28.447C-29.189,-26.835 -30.425,-26.651 -31.67,-27.589C-32.915,-28.527 -33.078,-29.766 -31.863,-31.378M-34.6,-23.699C-31.506,-21.368 -28.537,-22.273 -25.365,-26.482C-22.193,-30.691 -22.142,-33.794 -25.236,-36.126C-28.331,-38.458 -31.3,-37.553 -34.471,-33.344C-37.644,-29.135 -37.695,-26.032 -34.6,-23.699M-32.923,-10.552C-32.474,-12.413 -32.541,-14.031 -33.285,-15.312L-32.247,-15.061L-31.55,-17.946L-37.334,-19.342L-39,-12.446L-36.663,-11.883L-36.123,-14.118C-35.95,-14.077 -35.41,-13.153 -35.86,-11.291C-36.35,-9.258 -37.411,-8.598 -39.156,-9.019C-40.671,-9.385 -41.313,-10.456 -40.842,-12.404C-40.365,-14.379 -39.592,-14.483 -39.369,-14.521L-38.167,-19.497C-40.647,-19.974 -42.775,-18.305 -44.023,-13.142C-45.249,-8.063 -44.064,-5.196 -40.313,-4.291C-36.534,-3.377 -34.171,-5.388 -32.923,-10.552M9.542,64.272C-25.98,64.272 -54.879,35.373 -54.879,-0.15C-54.879,-35.671 -25.98,-64.571 9.542,-64.571C45.063,-64.571 73.963,-35.671 73.963,-0.15C73.963,35.373 45.063,64.272 9.542,64.272M9.542,-72.15C-30.159,-72.15 -62.458,-39.85 -62.458,-0.15C-62.458,39.552 -30.159,71.85 9.542,71.85C49.242,71.85 81.542,39.552 81.542,-0.15C81.542,-39.85 49.242,-72.15 9.542,-72.15" style="fill:currentColor;fill-rule:nonzero;"/>
        </g>
    </g>
</svg>
