<?xml version="1.0" encoding="UTF-8" standalone="no"?>
<!DOCTYPE svg PUBLIC "-//W3C//DTD SVG 1.1//EN" "http://www.w3.org/Graphics/SVG/1.1/DTD/svg11.dtd">
<svg width="100%" height="100%" viewBox="0 0 91 91" version="1.1" xmlns="http://www.w3.org/2000/svg" xmlns:xlink="http://www.w3.org/1999/xlink" xml:space="preserve" xmlns:serif="http://www.serif.com/" style="fill-rule:evenodd;clip-rule:evenodd;stroke-linejoin:round;stroke-miterlimit:2;">
    <g transform="matrix(1,0,0,1,45.0008,5.52)">
        <path d="M0,79.638C-16.514,79.638 -30.963,69.46 -36.921,54.766C-34.528,56.016 -31.824,56.705 -29.003,56.705C-19.588,56.705 -11.928,49.045 -11.928,39.63L-11.905,39.63C-11.905,34.181 -7.995,29.613 -2.759,28.4L-2.759,52.649C-4.81,51.664 -6.232,49.574 -6.232,47.152L-11.751,47.152C-11.751,53.559 -6.538,58.772 -0.131,58.772C6.277,58.772 11.49,53.559 11.49,47.152L5.971,47.152C5.971,49.47 4.67,51.491 2.76,52.523L2.76,28.4C7.997,29.613 11.907,34.181 11.907,39.63L11.925,39.63C11.925,49.045 19.584,56.705 28.999,56.705C31.823,56.705 34.528,56.015 36.923,54.763C30.966,69.46 16.517,79.638 0,79.638M44.396,43.513C43.945,42.935 43.259,42.555 42.532,42.464C41.299,42.301 40.129,42.991 39.647,44.127C37.835,48.415 33.654,51.186 28.999,51.186C22.627,51.186 17.443,46.002 17.443,39.63C17.443,33.258 22.627,28.075 28.999,28.075C33.649,28.075 37.828,30.841 39.644,35.122C40.132,36.276 41.344,36.956 42.582,36.777C44.084,36.562 45.13,35.176 44.927,33.674C41.896,11.329 22.582,-5.52 0,-5.52C-22.592,-5.52 -41.91,11.336 -44.934,33.689C-45.04,34.478 -44.795,35.275 -44.271,35.875C-43.747,36.474 -42.985,36.819 -42.188,36.819C-41.081,36.819 -40.079,36.156 -39.647,35.134C-37.833,30.845 -33.652,28.075 -28.998,28.075L-28.998,22.555C-31.744,22.555 -34.378,23.207 -36.723,24.395C-30.634,9.969 -16.286,-0.001 0,-0.001C16.279,-0.001 30.626,9.969 36.716,24.392C34.372,23.206 31.741,22.555 28.999,22.555C22.979,22.555 17.688,25.695 14.647,30.414C11.544,25.695 6.145,22.555 0,22.555C-8.646,22.555 -15.822,28.766 -17.176,36.871L-28.439,36.871L-28.439,42.39L-17.794,42.39C-19.036,47.431 -23.583,51.186 -29.003,51.186C-33.657,51.186 -37.836,48.415 -39.65,44.129C-40.136,42.985 -41.383,42.31 -42.604,42.475C-44.108,42.676 -45.168,44.052 -44.979,45.557C-42.125,68.133 -22.788,85.158 0,85.158C22.79,85.158 42.127,68.132 44.979,45.555C45.071,44.828 44.845,44.091 44.396,43.513M0,67.697C-7.426,67.697 -14.482,64.887 -19.872,59.784L-23.667,63.791C-17.248,69.868 -8.843,73.216 0,73.216C8.978,73.216 17.475,69.781 23.929,63.543L20.093,59.575C14.675,64.812 7.538,67.697 0,67.697" style="fill:#e7292a;fill-rule:nonzero;"/>
    </g>
</svg>
