<?xml version="1.0" encoding="UTF-8" standalone="no"?>
<!DOCTYPE svg PUBLIC "-//W3C//DTD SVG 1.1//EN" "http://www.w3.org/Graphics/SVG/1.1/DTD/svg11.dtd">
<svg width="100%" height="100%" viewBox="0 0 8 5" version="1.1" xmlns="http://www.w3.org/2000/svg" xmlns:xlink="http://www.w3.org/1999/xlink" xml:space="preserve" xmlns:serif="http://www.serif.com/" style="fill-rule:evenodd;clip-rule:evenodd;stroke-linejoin:round;stroke-miterlimit:2;">
    <g transform="matrix(1,0,0,1,7.44086,0.057)">
        <path d="M0,4.629C-0.145,4.629 -0.289,4.572 -0.397,4.46L-3.445,1.29L-6.493,4.46C-6.704,4.679 -7.053,4.686 -7.272,4.475C-7.491,4.264 -7.498,3.915 -7.287,3.695L-3.843,0.112C-3.738,0.005 -3.595,-0.057 -3.445,-0.057C-3.295,-0.057 -3.151,0.005 -3.048,0.112L0.397,3.695C0.608,3.915 0.602,4.264 0.382,4.475C0.274,4.578 0.138,4.629 0,4.629" style="fill:currentColor;fill-rule:nonzero;"/>
    </g>
</svg>
