<?xml version="1.0" encoding="UTF-8" standalone="no"?>
<!DOCTYPE svg PUBLIC "-//W3C//DTD SVG 1.1//EN" "http://www.w3.org/Graphics/SVG/1.1/DTD/svg11.dtd">
<svg width="100%" height="100%" viewBox="0 0 5 8" version="1.1" xmlns="http://www.w3.org/2000/svg" xmlns:xlink="http://www.w3.org/1999/xlink" xml:space="preserve" xmlns:serif="http://www.serif.com/" style="fill-rule:evenodd;clip-rule:evenodd;stroke-linejoin:round;stroke-miterlimit:2;">
    <g transform="matrix(1,0,0,1,4.68486,3.93861)">
        <path d="M0,0.058C0,0.208 -0.061,0.351 -0.169,0.455L-3.752,3.901C-3.858,4.003 -3.996,4.054 -4.134,4.054C-4.278,4.054 -4.423,3.997 -4.531,3.885C-4.742,3.665 -4.735,3.317 -4.516,3.106L-1.346,0.058L-4.516,-2.99C-4.735,-3.201 -4.742,-3.549 -4.531,-3.769C-4.32,-3.989 -3.971,-3.996 -3.752,-3.784L-0.169,-0.339C-0.061,-0.235 0,-0.092 0,0.058" style="fill:currentColor;fill-rule:nonzero;"/>
    </g>
</svg>
