<?xml version="1.0" encoding="UTF-8" standalone="no"?>
<!DOCTYPE svg PUBLIC "-//W3C//DTD SVG 1.1//EN" "http://www.w3.org/Graphics/SVG/1.1/DTD/svg11.dtd">
<svg width="100%" height="100%" viewBox="0 0 8 8" version="1.1" xmlns="http://www.w3.org/2000/svg" xmlns:xlink="http://www.w3.org/1999/xlink" xml:space="preserve" xmlns:serif="http://www.serif.com/" style="fill-rule:evenodd;clip-rule:evenodd;stroke-linejoin:round;stroke-miterlimit:2;">
    <g id="x" transform="matrix(1,0,0,1,6.9835,0.9985)">
        <path d="M0,5.108C0.242,5.35 0.242,5.743 0,5.985C-0.121,6.106 -0.279,6.167 -0.438,6.167C-0.597,6.167 -0.756,6.106 -0.877,5.985L-3.4,3.462L-5.925,5.985C-6.046,6.106 -6.205,6.167 -6.363,6.167C-6.522,6.167 -6.681,6.106 -6.802,5.985C-7.044,5.743 -7.044,5.35 -6.802,5.108L-4.277,2.585L-6.802,0.06C-7.044,-0.182 -7.044,-0.575 -6.802,-0.817C-6.56,-1.059 -6.167,-1.059 -5.925,-0.817L-3.4,1.708L-0.877,-0.817C-0.635,-1.059 -0.242,-1.059 0,-0.817C0.242,-0.575 0.242,-0.182 0,0.06L-2.523,2.585L0,5.108Z" style="fill:currentColor;fill-rule:nonzero;"/>
    </g>
</svg>
