<?xml version="1.0" encoding="UTF-8" standalone="no"?>
<!DOCTYPE svg PUBLIC "-//W3C//DTD SVG 1.1//EN" "http://www.w3.org/Graphics/SVG/1.1/DTD/svg11.dtd">
<svg width="100%" height="100%" viewBox="0 0 128 128" version="1.1" xmlns="http://www.w3.org/2000/svg" xmlns:xlink="http://www.w3.org/1999/xlink" xml:space="preserve" xmlns:serif="http://www.serif.com/" style="fill:currentColor;fill-rule:evenodd;clip-rule:evenodd;stroke-linejoin:round;stroke-miterlimit:2;">
    <path d="M68.877,128L16,128C7.2,128 0,120.8 0,112L0,16C0,7.2 7.2,0 16,0L112,0C120.8,0 128,7.2 128,16L128,112C128,120.8 120.8,128 112,128L86.603,128L86.603,78.188L104.255,78.188L107.159,60.425L86.603,60.425L86.603,46.881C86.603,41.288 88.104,37.309 96.126,37.309L108,37.314L108,18.741C106.229,18.506 100.463,17.75 93.395,17.75C78.645,17.75 68.881,27.492 68.881,44.029L68.881,60.425L51.097,60.425L51.097,78.188L68.877,78.188L68.877,128Z" style="fill-rule:nonzero;"/>
</svg>
