<?xml version="1.0" encoding="UTF-8" standalone="no"?>
<!DOCTYPE svg PUBLIC "-//W3C//DTD SVG 1.1//EN" "http://www.w3.org/Graphics/SVG/1.1/DTD/svg11.dtd">
<svg width="100%" height="100%" viewBox="0 0 15 15" version="1.1" xmlns="http://www.w3.org/2000/svg" xmlns:xlink="http://www.w3.org/1999/xlink" xml:space="preserve" xmlns:serif="http://www.serif.com/" style="fill-rule:evenodd;clip-rule:evenodd;stroke-linejoin:round;stroke-miterlimit:2;">
    <g id="gtc" transform="matrix(1,0,0,1,7.19967,0.883)">
        <path d="M0,12.742C-2.642,12.742 -4.954,11.114 -5.907,8.763C-5.524,8.963 -5.092,9.073 -4.641,9.073C-3.134,9.073 -1.908,7.847 -1.908,6.341L-1.904,6.341C-1.904,5.47 -1.279,4.738 -0.441,4.544L-0.441,8.424C-0.77,8.266 -0.997,7.932 -0.997,7.545L-1.88,7.545C-1.88,8.569 -1.046,9.403 -0.021,9.403C1.005,9.403 1.839,8.569 1.839,7.545L0.955,7.545C0.955,7.916 0.747,8.239 0.441,8.404L0.441,4.544C1.279,4.738 1.905,5.47 1.905,6.341L1.908,6.341C1.908,7.847 3.134,9.073 4.64,9.073C5.092,9.073 5.524,8.963 5.908,8.763C4.955,11.114 2.643,12.742 0,12.742M7.104,6.963C7.031,6.87 6.922,6.809 6.806,6.795C6.608,6.768 6.421,6.879 6.344,7.06C6.054,7.747 5.385,8.19 4.64,8.19C3.62,8.19 2.791,7.36 2.791,6.341C2.791,5.321 3.62,4.492 4.64,4.492C5.384,4.492 6.053,4.934 6.343,5.62C6.421,5.805 6.615,5.913 6.813,5.885C7.054,5.85 7.221,5.629 7.188,5.388C6.703,1.813 3.613,-0.883 0,-0.883C-3.614,-0.883 -6.705,1.814 -7.189,5.39C-7.206,5.516 -7.167,5.644 -7.083,5.74C-6.999,5.836 -6.878,5.891 -6.75,5.891C-6.573,5.891 -6.412,5.785 -6.344,5.622C-6.053,4.935 -5.385,4.492 -4.64,4.492L-4.64,3.609C-5.079,3.609 -5.5,3.714 -5.876,3.903C-4.901,1.596 -2.605,0 0,0C2.604,0 4.9,1.596 5.875,3.903C5.5,3.713 5.079,3.609 4.64,3.609C3.677,3.609 2.83,4.111 2.344,4.866C1.847,4.111 0.983,3.609 0,3.609C-1.384,3.609 -2.531,4.602 -2.748,5.899L-4.55,5.899L-4.55,6.783L-2.847,6.783C-3.046,7.589 -3.773,8.19 -4.641,8.19C-5.385,8.19 -6.054,7.747 -6.344,7.06C-6.422,6.878 -6.621,6.769 -6.816,6.796C-7.058,6.828 -7.227,7.049 -7.196,7.289C-6.74,10.901 -3.646,13.625 0,13.625C3.646,13.625 6.74,10.901 7.197,7.289C7.212,7.173 7.175,7.055 7.104,6.963M0,10.832C-1.187,10.832 -2.317,10.382 -3.18,9.565L-3.786,10.207C-2.76,11.18 -1.415,11.715 0,11.715C1.437,11.715 2.796,11.165 3.829,10.167L3.215,9.532C2.348,10.37 1.206,10.832 0,10.832" style="fill:currentColor;fill-rule:nonzero;"/>
    </g>
</svg>
