<?xml version="1.0" encoding="UTF-8" standalone="no"?>
<!DOCTYPE svg PUBLIC "-//W3C//DTD SVG 1.1//EN" "http://www.w3.org/Graphics/SVG/1.1/DTD/svg11.dtd">
<svg width="100%" height="100%" viewBox="0 0 13 13" version="1.1" xmlns="http://www.w3.org/2000/svg" xmlns:xlink="http://www.w3.org/1999/xlink" xml:space="preserve" xmlns:serif="http://www.serif.com/" style="fill-rule:evenodd;clip-rule:evenodd;stroke-linejoin:round;stroke-miterlimit:2;">
    <g transform="matrix(1,0,0,1,9.192,1.2775)">
        <path d="M0,10.069L-2.5,7.569L-1.812,6.881L-1.394,7.3C-1.286,7.408 -1.146,7.462 -1.004,7.462C-0.863,7.462 -0.722,7.408 -0.614,7.3C-0.398,7.085 -0.398,6.736 -0.614,6.521L-1.033,6.102L-0.346,5.414L2.154,7.915L0,10.069ZM-5.361,4.709L-7.861,2.208L-5.706,0.053L-3.206,2.553L-3.894,3.241L-4.312,2.822C-4.528,2.607 -4.877,2.607 -5.093,2.822C-5.308,3.038 -5.308,3.386 -5.093,3.601L-4.674,4.02L-5.361,4.709ZM3.324,7.524L0.044,4.245C-0.171,4.03 -0.52,4.03 -0.735,4.245L-1.812,5.322L-3.114,4.02L-2.037,2.943C-1.821,2.727 -1.821,2.379 -2.037,2.164L-5.316,-1.117C-5.531,-1.331 -5.881,-1.331 -6.096,-1.117L-9.03,1.818C-9.134,1.922 -9.192,2.062 -9.192,2.208C-9.192,2.354 -9.134,2.495 -9.03,2.597L-5.751,5.878C-5.644,5.985 -5.502,6.039 -5.361,6.039C-5.22,6.039 -5.079,5.985 -4.972,5.878L-3.894,4.8L-2.592,6.102L-3.67,7.179C-3.885,7.394 -3.885,7.744 -3.67,7.959L-0.39,11.239C-0.287,11.341 -0.146,11.4 0,11.4C0.146,11.4 0.286,11.341 0.39,11.239L3.324,8.304C3.539,8.089 3.539,7.74 3.324,7.524" style="fill:currentColor;fill-rule:nonzero;"/>
    </g>
</svg>
