<?xml version="1.0" encoding="UTF-8" standalone="no"?>
<!DOCTYPE svg PUBLIC "-//W3C//DTD SVG 1.1//EN" "http://www.w3.org/Graphics/SVG/1.1/DTD/svg11.dtd">
<svg width="100%" height="100%" viewBox="0 0 11 10" version="1.1" xmlns="http://www.w3.org/2000/svg" xmlns:xlink="http://www.w3.org/1999/xlink" xml:space="preserve" xmlns:serif="http://www.serif.com/" style="fill-rule:evenodd;clip-rule:evenodd;stroke-linejoin:round;stroke-miterlimit:2;">
    <g id="menu" transform="matrix(1,0,0,1,10.611,0.896)">
        <path d="M0,7.992C0,7.498 -0.401,7.096 -0.896,7.096L-9.715,7.096C-10.21,7.096 -10.611,7.498 -10.611,7.992C-10.611,8.487 -10.21,8.888 -9.715,8.888L-0.896,8.888C-0.401,8.888 0,8.487 0,7.992M0,3.996C0,3.502 -0.401,3.1 -0.896,3.1L-9.715,3.1C-10.21,3.1 -10.611,3.502 -10.611,3.996C-10.611,4.491 -10.21,4.891 -9.715,4.891L-0.896,4.891C-0.401,4.891 0,4.491 0,3.996M-0.896,0.895L-9.715,0.895C-10.21,0.895 -10.611,0.495 -10.611,0C-10.611,-0.494 -10.21,-0.896 -9.715,-0.896L-0.896,-0.896C-0.401,-0.896 0,-0.494 0,0C0,0.495 -0.401,0.895 -0.896,0.895" style="fill:currentColor;fill-rule:nonzero;"/>
    </g>
</svg>
