<?xml version="1.0" encoding="UTF-8" standalone="no"?>
<!DOCTYPE svg PUBLIC "-//W3C//DTD SVG 1.1//EN" "http://www.w3.org/Graphics/SVG/1.1/DTD/svg11.dtd">
<svg width="100%" height="100%" viewBox="0 0 12 12" version="1.1" xmlns="http://www.w3.org/2000/svg" xmlns:xlink="http://www.w3.org/1999/xlink" xml:space="preserve" xmlns:serif="http://www.serif.com/" style="fill-rule:evenodd;clip-rule:evenodd;stroke-linejoin:round;stroke-miterlimit:2;">
    <g transform="matrix(1,0,0,1,11.694,4.09243)">
        <path d="M0,3.345C0.213,3.564 0.208,3.912 -0.01,4.124C-0.117,4.229 -0.256,4.281 -0.395,4.281C-0.538,4.281 -0.682,4.225 -0.789,4.115L-2.375,2.486L-3.961,4.115C-4.068,4.225 -4.212,4.281 -4.355,4.281C-4.494,4.281 -4.633,4.229 -4.74,4.124C-4.958,3.912 -4.963,3.564 -4.751,3.345L-3.145,1.695L-4.751,0.045C-4.963,-0.174 -4.958,-0.522 -4.74,-0.734C-4.521,-0.947 -4.173,-0.942 -3.961,-0.724L-2.375,0.905L-0.789,-0.724C-0.577,-0.942 -0.229,-0.947 -0.01,-0.734C0.208,-0.522 0.213,-0.174 0,0.045L-1.605,1.695L0,3.345ZM-7.284,5.575L-9.181,3.656C-9.284,3.549 -9.457,3.487 -9.605,3.487L-10.592,3.487L-10.592,-0.096L-9.605,-0.096C-9.457,-0.096 -9.284,-0.159 -9.181,-0.265L-7.284,-2.185L-7.284,5.575ZM-6.556,-4.052C-6.764,-4.137 -7.017,-4.085 -7.173,-3.924L-9.838,-1.199L-11.143,-1.199C-11.447,-1.199 -11.694,-0.957 -11.694,-0.653L-11.694,4.043C-11.694,4.347 -11.447,4.589 -11.143,4.589L-9.838,4.589L-7.187,7.314C-7.082,7.423 -6.938,7.482 -6.793,7.482C-6.723,7.482 -6.623,7.47 -6.556,7.443C-6.348,7.358 -6.182,7.157 -6.182,6.932L-6.182,-3.542C-6.182,-3.766 -6.348,-3.968 -6.556,-4.052" style="fill:currentColor;fill-rule:nonzero;"/>
    </g>
</svg>
