<?xml version="1.0" encoding="UTF-8" standalone="no"?>
<!DOCTYPE svg PUBLIC "-//W3C//DTD SVG 1.1//EN" "http://www.w3.org/Graphics/SVG/1.1/DTD/svg11.dtd">
<svg width="100%" height="100%" viewBox="0 0 7 11" version="1.1" xmlns="http://www.w3.org/2000/svg" xmlns:xlink="http://www.w3.org/1999/xlink" xml:space="preserve" xmlns:serif="http://www.serif.com/" style="fill-rule:evenodd;clip-rule:evenodd;stroke-linejoin:round;stroke-miterlimit:2;">
    <g transform="matrix(1,0,0,1,5.649,10.473)">
        <path d="M0,-10.473C-0.38,-10.473 -0.688,-10.164 -0.688,-9.785L-0.688,-0.69C-0.688,-0.309 -0.38,0 0,0C0.381,0 0.689,-0.309 0.689,-0.69L0.689,-9.785C0.689,-10.164 0.381,-10.473 0,-10.473M-4.271,-9.785L-4.271,-0.69C-4.271,-0.309 -4.58,0 -4.96,0C-5.341,0 -5.649,-0.309 -5.649,-0.69L-5.649,-9.785C-5.649,-10.164 -5.341,-10.473 -4.96,-10.473C-4.58,-10.473 -4.271,-10.164 -4.271,-9.785" style="fill:currentColor;fill-rule:nonzero;"/>
    </g>
</svg>
