<?xml version="1.0" encoding="UTF-8" standalone="no"?>
<!DOCTYPE svg PUBLIC "-//W3C//DTD SVG 1.1//EN" "http://www.w3.org/Graphics/SVG/1.1/DTD/svg11.dtd">
<svg width="100%" height="100%" viewBox="0 0 13 12" version="1.1" xmlns="http://www.w3.org/2000/svg" xmlns:xlink="http://www.w3.org/1999/xlink" xml:space="preserve" xmlns:serif="http://www.serif.com/" style="fill-rule:evenodd;clip-rule:evenodd;stroke-linejoin:round;stroke-miterlimit:2;">
    <g transform="matrix(1,0,0,1,10.733,0.82981)">
        <path d="M0,9.871C-0.108,9.993 -0.26,10.055 -0.411,10.055C-0.542,10.055 -0.673,10.009 -0.778,9.915C-1.006,9.712 -1.025,9.363 -0.822,9.137C0.728,7.403 1.201,5.477 0.585,3.411C0.117,1.843 -0.812,0.79 -0.822,0.779C-1.025,0.553 -1.006,0.204 -0.778,0.001C-0.552,-0.201 -0.203,-0.182 0,0.045C0.044,0.094 4.344,5.014 0,9.871M-1.739,8.767C-1.848,8.889 -1.999,8.95 -2.15,8.95C-2.281,8.95 -2.412,8.904 -2.518,8.81C-2.745,8.607 -2.765,8.259 -2.562,8.031C0.156,4.993 -2.449,2.01 -2.562,1.884C-2.765,1.657 -2.745,1.308 -2.518,1.105C-2.291,0.903 -1.942,0.923 -1.739,1.149C-1.705,1.187 1.628,5.002 -1.739,8.767M-3.405,7.292C-3.514,7.413 -3.665,7.475 -3.816,7.475C-3.947,7.475 -4.078,7.43 -4.184,7.335C-4.411,7.133 -4.431,6.784 -4.228,6.557C-2.851,5.017 -4.084,3.522 -4.229,3.357C-4.43,3.129 -4.408,2.781 -4.181,2.58C-3.954,2.379 -3.607,2.398 -3.405,2.624C-2.684,3.432 -1.755,5.445 -3.405,7.292M-6.324,8.86L-8.241,6.914C-8.345,6.81 -8.465,6.749 -8.612,6.749L-9.631,6.749L-9.631,3.167L-8.612,3.167C-8.465,3.167 -8.345,3.105 -8.241,3.002L-6.324,1.056L-6.324,8.86ZM-5.543,-0.789C-5.749,-0.874 -5.977,-0.823 -6.134,-0.666L-8.841,2.064L-10.186,2.064C-10.49,2.064 -10.733,2.306 -10.733,2.61L-10.733,7.306C-10.733,7.61 -10.49,7.851 -10.186,7.851L-8.841,7.851L-6.124,10.581C-6.019,10.687 -5.877,10.745 -5.733,10.745C-5.662,10.745 -5.61,10.732 -5.543,10.704C-5.336,10.619 -5.222,10.418 -5.222,10.195L-5.222,-0.279C-5.222,-0.502 -5.336,-0.704 -5.543,-0.789" style="fill:currentColor;fill-rule:nonzero;"/>
    </g>
</svg>
